<svg width="230" height="30" viewBox="0 0 230 30" fill="none" xmlns="http://www.w3.org/2000/svg">
<path d="M83.4821 27.9476C83.2712 27.9633 83.0594 27.9353 82.8598 27.8653C82.6602 27.7954 82.4773 27.685 82.3223 27.5411C82.1673 27.3973 82.0437 27.223 81.9592 27.0291C81.8747 26.8353 81.8311 26.6261 81.8311 26.4147C81.8311 26.2032 81.8747 25.994 81.9592 25.8002C82.0437 25.6064 82.1673 25.4321 82.3223 25.2882C82.4773 25.1443 82.6602 25.034 82.8598 24.964C83.0594 24.8941 83.2712 24.8661 83.4821 24.8817H100.264C100.475 24.8661 100.687 24.8941 100.886 24.964C101.086 25.034 101.269 25.1443 101.424 25.2882C101.579 25.4321 101.703 25.6064 101.787 25.8002C101.872 25.994 101.915 26.2032 101.915 26.4147C101.915 26.6261 101.872 26.8353 101.787 27.0291C101.703 27.223 101.579 27.3973 101.424 27.5411C101.269 27.685 101.086 27.7954 100.886 27.8653C100.687 27.9353 100.475 27.9633 100.264 27.9476H83.4821Z" fill="#1EAD96"/>
<path d="M4.9351 27.9899C4.52654 27.992 4.13194 27.8413 3.82868 27.5676L3.74422 27.4915C3.46806 27.2027 3.3138 26.8185 3.31348 26.4189V3.44594C3.34723 3.08807 3.50204 2.75242 3.75235 2.49443C4.00266 2.23645 4.33348 2.07156 4.69017 2.02702H4.83375H4.9351C5.30103 2.02445 5.65707 2.14573 5.94534 2.37113C6.23362 2.59654 6.43718 2.91282 6.52294 3.26857C6.53583 3.37234 6.53583 3.4773 6.52294 3.58107V24.848H21.7087C22.1254 24.848 22.525 25.0135 22.8196 25.3081C23.1142 25.6027 23.2797 26.0023 23.2797 26.4189C23.2797 26.8356 23.1142 27.2351 22.8196 27.5297C22.525 27.8243 22.1254 27.9899 21.7087 27.9899H4.9351Z" fill="#1EAD96"/>
<path d="M4.93472 27.9561C4.53414 27.956 4.14825 27.8052 3.85364 27.5338L3.76918 27.4662C3.49991 27.1838 3.34883 26.8091 3.34688 26.4189V3.61488C3.34271 3.57275 3.34271 3.53031 3.34688 3.48819C3.36805 3.13064 3.51409 2.79187 3.75952 2.53101C4.00496 2.27014 4.33419 2.10373 4.68979 2.06082H4.84182H4.93472C5.29336 2.05697 5.64263 2.1753 5.92508 2.39634C6.20752 2.61739 6.40632 2.92798 6.48878 3.27704C6.49712 3.37822 6.49712 3.47991 6.48878 3.58109V24.8818H21.6915C22.0992 24.8818 22.4901 25.0437 22.7784 25.332C23.0667 25.6203 23.2286 26.0112 23.2286 26.4189C23.2286 26.8266 23.0667 27.2176 22.7784 27.5059C22.4901 27.7941 22.0992 27.9561 21.6915 27.9561H4.93472Z" fill="#1EAD96"/>
<path d="M61.2442 27.9899C60.9393 27.9918 60.6399 27.9081 60.3801 27.7484C60.1203 27.5886 59.9105 27.3592 59.7746 27.0861L57.4351 21.799L55.1378 27.027C55.001 27.3103 54.7877 27.5498 54.5221 27.7184C54.2565 27.887 53.949 27.9781 53.6344 27.9814C53.4248 27.9848 53.2166 27.9468 53.0216 27.8697C52.8266 27.7925 52.6488 27.6777 52.4982 27.5319C52.3476 27.386 52.2273 27.2119 52.144 27.0194C52.0607 26.827 52.0161 26.6201 52.0128 26.4105C52.0125 26.2012 52.0556 25.9941 52.1395 25.8024L55.6699 17.7872L51.1767 7.60135L42.604 27.027C42.4734 27.3157 42.2618 27.5603 41.995 27.7312C41.7282 27.9021 41.4175 27.9919 41.1006 27.9899C40.891 27.9932 40.6828 27.9552 40.4878 27.8781C40.2929 27.801 40.115 27.6862 39.9644 27.5403C39.8138 27.3944 39.6935 27.2203 39.6102 27.0279C39.5269 26.8355 39.4823 26.6286 39.479 26.4189C39.4779 26.2276 39.5152 26.0381 39.5888 25.8615L49.6986 2.96453C49.8595 2.5838 50.1625 2.28081 50.5432 2.11994C50.7684 2.04054 51.0055 2.00054 51.2442 2.00169C51.464 1.99672 51.6825 2.03697 51.8861 2.11994C52.2668 2.28081 52.5698 2.5838 52.7307 2.96453L57.4942 13.7753L62.2662 2.96453C62.4255 2.58278 62.729 2.27928 63.1108 2.11994C63.3482 2.04293 63.596 2.00305 63.8456 2.00169C64.0516 1.99839 64.2559 2.03869 64.4452 2.11994C64.824 2.28375 65.126 2.58579 65.2898 2.96453L75.349 25.7686C75.434 25.9633 75.4799 26.1728 75.4841 26.3851C75.4752 26.8093 75.2988 27.2126 74.9933 27.507C74.6878 27.8014 74.2782 27.9629 73.854 27.9561C73.5282 27.9762 73.2037 27.8985 72.9223 27.733C72.6409 27.5674 72.4154 27.3216 72.2746 27.027L63.702 7.60135L59.2088 17.7872L62.7392 25.8024C62.8283 25.9957 62.8744 26.206 62.8743 26.4189C62.8654 26.8431 62.689 27.2464 62.3835 27.5408C62.078 27.8352 61.6684 27.9967 61.2442 27.9899Z" fill="#1EAD96"/>
<path d="M61.2441 27.9561C60.9504 27.9515 60.6635 27.8664 60.4148 27.7101C60.1661 27.5537 59.9651 27.332 59.8337 27.0693L57.4688 21.7061L55.1039 27.027C54.9737 27.307 54.7662 27.544 54.5058 27.71C54.2455 27.8761 53.9431 27.9644 53.6343 27.9645C53.2206 27.9691 52.8217 27.8102 52.5244 27.5224C52.2271 27.2346 52.0554 26.8411 52.0465 26.4274C52.0471 26.2236 52.0902 26.0222 52.1732 25.8361L55.712 17.8041L51.1766 7.5L42.5702 27.027C42.4247 27.3588 42.1707 27.6312 41.85 27.7995C41.5293 27.9678 41.1608 28.022 40.8052 27.9533C40.4495 27.8845 40.1279 27.6968 39.893 27.4211C39.6581 27.1453 39.524 26.7979 39.5127 26.4358C39.5116 26.2472 39.5489 26.0604 39.6225 25.8868L49.6985 2.98142C49.8689 2.61711 50.1706 2.33056 50.5431 2.17905C50.7643 2.10795 50.995 2.07093 51.2273 2.06925C51.4415 2.06515 51.6543 2.10541 51.8522 2.1875C52.2242 2.33553 52.5261 2.6193 52.6968 2.98142L57.4941 13.8682L62.2408 2.98142C62.4079 2.6167 62.711 2.33178 63.0854 2.1875C63.3166 2.10904 63.5591 2.0691 63.8033 2.06925C64.0038 2.06574 64.2027 2.1061 64.386 2.1875C64.7576 2.33625 65.0592 2.6198 65.2306 2.98142L75.2898 25.7855C75.372 25.9748 75.4151 26.1787 75.4164 26.3851C75.4131 26.5903 75.3694 26.7929 75.2879 26.9812C75.2063 27.1695 75.0884 27.3399 74.9409 27.4826C74.7935 27.6254 74.6194 27.7377 74.4285 27.8131C74.2376 27.8885 74.0338 27.9256 73.8286 27.9223C73.5154 27.9379 73.2046 27.8614 72.9344 27.7023C72.6642 27.5432 72.4466 27.3085 72.3083 27.027L63.7019 7.5L59.1664 17.7872L62.7053 25.8108C62.7901 26.0022 62.8333 26.2095 62.832 26.4189C62.8287 26.6241 62.785 26.8267 62.7034 27.015C62.6218 27.2033 62.5039 27.3737 62.3565 27.5164C62.209 27.6592 62.0349 27.7715 61.844 27.8469C61.6532 27.9223 61.4493 27.9594 61.2441 27.9561Z" fill="#1EAD96"/>
<path d="M83.4821 16.571C83.2758 16.571 83.0715 16.5303 82.8809 16.4514C82.6903 16.3724 82.5171 16.2567 82.3713 16.1108C82.2254 15.965 82.1097 15.7918 82.0307 15.6012C81.9518 15.4106 81.9111 15.2063 81.9111 15C81.9111 14.7937 81.9518 14.5894 82.0307 14.3988C82.1097 14.2083 82.2254 14.0351 82.3713 13.8892C82.5171 13.7433 82.6903 13.6276 82.8809 13.5487C83.0715 13.4697 83.2758 13.4291 83.4821 13.4291H98.5834C98.7897 13.4291 98.994 13.4697 99.1846 13.5487C99.3752 13.6276 99.5484 13.7433 99.6943 13.8892C99.8401 14.0351 99.9559 14.2083 100.035 14.3988C100.114 14.5894 100.154 14.7937 100.154 15C100.154 15.2063 100.114 15.4106 100.035 15.6012C99.9559 15.7918 99.8401 15.965 99.6943 16.1108C99.5484 16.2567 99.3752 16.3724 99.1846 16.4514C98.994 16.5303 98.7897 16.571 98.5834 16.571H83.4821Z" fill="#1EAD96"/>
<path d="M83.482 16.5372C83.0743 16.5372 82.6833 16.3752 82.395 16.0869C82.1068 15.7987 81.9448 15.4077 81.9448 15C81.9448 14.5923 82.1068 14.2013 82.395 13.9131C82.6833 13.6248 83.0743 13.4628 83.482 13.4628H98.5833C98.991 13.4628 99.382 13.6248 99.6703 13.9131C99.9585 14.2013 100.12 14.5923 100.12 15C100.12 15.4077 99.9585 15.7987 99.6703 16.0869C99.382 16.3752 98.991 16.5372 98.5833 16.5372H83.482Z" fill="#1EAD96"/>
<path d="M83.482 5.15206C83.2723 5.15541 83.0641 5.11743 82.8691 5.0403C82.6742 4.96316 82.4963 4.84837 82.3458 4.70249C82.1952 4.55661 82.0748 4.38249 81.9915 4.19008C81.9082 3.99768 81.8637 3.79074 81.8604 3.58111C81.8692 3.15845 82.0445 2.75637 82.3482 2.46222C82.6518 2.16807 83.0592 2.00562 83.482 2.01016H100.264C100.687 2.00562 101.094 2.16807 101.398 2.46222C101.702 2.75637 101.877 3.15845 101.886 3.58111C101.882 3.79074 101.838 3.99768 101.755 4.19008C101.671 4.38249 101.551 4.55661 101.4 4.70249C101.25 4.84837 101.072 4.96316 100.877 5.0403C100.682 5.11743 100.474 5.15541 100.264 5.15206H83.482Z" fill="#1EAD96"/>
<path d="M83.4824 5.11825C83.2772 5.12161 83.0733 5.0845 82.8825 5.00907C82.6916 4.93363 82.5175 4.82133 82.37 4.67858C82.2226 4.53584 82.1047 4.36545 82.0231 4.17714C81.9415 3.98883 81.8978 3.78629 81.8945 3.58109C81.8978 3.37628 81.9416 3.17413 82.0233 2.98629C82.1049 2.79844 82.223 2.6286 82.3705 2.48653C82.5181 2.34446 82.6923 2.23296 82.8831 2.15845C83.0739 2.08395 83.2776 2.04789 83.4824 2.05237H100.264C100.677 2.04558 101.076 2.20258 101.374 2.48905C101.671 2.77552 101.843 3.16815 101.852 3.58109C101.843 3.99479 101.672 4.38828 101.374 4.67609C101.077 4.96391 100.678 5.1228 100.264 5.11825H83.4824Z" fill="#1EAD96"/>
<path d="M31.4044 27.9898C30.98 27.9773 30.576 27.8054 30.2726 27.5084C30.1274 27.3663 30.0116 27.1969 29.9319 27.0099C29.8522 26.823 29.8101 26.6221 29.8081 26.4189V3.42904V3.31079V3.21789C29.8884 2.90697 30.06 2.62727 30.3009 2.41497C30.5419 2.20267 30.8409 2.06752 31.1595 2.02701H31.303H31.4044C31.7514 2.02479 32.09 2.13335 32.3711 2.3369C32.6521 2.54045 32.8608 2.82838 32.9669 3.15877V3.28546C32.9756 3.38944 32.9756 3.49397 32.9669 3.59796V26.402C32.9602 26.8261 32.7859 27.2304 32.482 27.5264C32.1781 27.8223 31.7694 27.9859 31.3453 27.9814L31.4044 27.9898Z" fill="#1EAD96"/>
<path d="M31.4042 27.9476C30.9822 27.9396 30.5784 27.7739 30.2725 27.4831C30.1288 27.3455 30.0143 27.1804 29.9359 26.9975C29.8575 26.8147 29.8169 26.6179 29.8164 26.4189V3.42905V3.31925V3.22635C29.8977 2.92437 30.0659 2.65292 30.3002 2.44571C30.5344 2.2385 30.8243 2.10466 31.134 2.06081H31.2776H31.3705C31.7087 2.05928 32.0385 2.16578 32.312 2.3648C32.5854 2.56381 32.7882 2.84494 32.8907 3.16723V3.29392C32.9036 3.39486 32.9036 3.49703 32.8907 3.59797V26.402C32.8874 26.6072 32.8437 26.8098 32.7622 26.9981C32.6806 27.1864 32.5627 27.3568 32.4152 27.4995C32.2678 27.6423 32.0937 27.7546 31.9028 27.83C31.7119 27.9054 31.5081 27.9425 31.3029 27.9392L31.4042 27.9476Z" fill="#1EAD96"/>
<path d="M111.269 27.9899C110.862 27.9872 110.469 27.8372 110.163 27.5676L110.079 27.4916C109.802 27.2027 109.648 26.8185 109.648 26.4189V3.61486C109.643 3.56993 109.643 3.52466 109.648 3.47973C109.679 3.12076 109.832 2.78343 110.083 2.52485C110.334 2.26627 110.667 2.10234 111.025 2.06081H111.168H111.261C111.631 2.0572 111.991 2.18 112.281 2.40888C112.571 2.63775 112.775 2.95895 112.857 3.31925C112.87 3.42302 112.87 3.52799 112.857 3.63175V24.848H128.009C128.426 24.848 128.826 25.0135 129.12 25.3081C129.415 25.6027 129.58 26.0023 129.58 26.4189C129.58 26.8356 129.415 27.2351 129.12 27.5297C128.826 27.8244 128.426 27.9899 128.009 27.9899H111.269Z" fill="#CFC82A"/>
<path d="M111.269 27.9561C110.869 27.9543 110.484 27.8038 110.188 27.5338L110.112 27.4662C109.837 27.1871 109.682 26.811 109.681 26.4189V3.61489C109.677 3.57276 109.677 3.53032 109.681 3.4882C109.712 3.13719 109.861 2.80723 110.106 2.55354C110.35 2.29985 110.675 2.13784 111.024 2.09461H111.176H111.261C111.624 2.08809 111.977 2.20734 112.262 2.43213C112.547 2.65691 112.745 2.97336 112.823 3.32772C112.832 3.4289 112.832 3.5306 112.823 3.63178V24.8818H128.026C128.434 24.8818 128.825 25.0437 129.113 25.332C129.401 25.6203 129.563 26.0113 129.563 26.4189C129.563 26.8266 129.401 27.2176 129.113 27.5059C128.825 27.7941 128.434 27.9561 128.026 27.9561H111.269Z" fill="#CFC82A"/>
<path d="M159.192 27.9898C157.376 28.0077 155.573 27.681 153.879 27.027C152.305 26.4061 150.869 25.4788 149.656 24.299C148.442 23.1222 147.48 21.7114 146.827 20.152C146.147 18.5199 145.802 16.7679 145.813 15C145.802 13.2321 146.147 11.48 146.827 9.84794C147.476 8.30275 148.43 6.90396 149.631 5.73477C150.844 4.55493 152.279 3.62767 153.854 3.00673C155.545 2.3394 157.348 2.00114 159.166 2.01011C162.714 1.95314 166.142 3.29404 168.71 5.74321C168.858 5.88565 168.976 6.0561 169.057 6.24462C169.138 6.43313 169.181 6.63593 169.183 6.84119C169.184 7.05224 169.144 7.26141 169.063 7.45661C168.983 7.65181 168.865 7.82916 168.716 7.9784C168.566 8.12763 168.389 8.2458 168.194 8.32604C167.999 8.40629 167.789 8.44704 167.578 8.44592C167.148 8.4443 166.734 8.27812 166.421 7.98139C164.47 6.14017 161.874 5.13663 159.192 5.18578C153.33 5.18578 149.056 9.32429 149.056 15.0338C149.056 20.7432 153.279 24.8817 159.192 24.8817C161.583 24.9105 163.911 24.1174 165.788 22.6351L165.957 22.5V16.5878H155.822C155.405 16.5878 155.005 16.4223 154.711 16.1277C154.416 15.8331 154.251 15.4335 154.251 15.0169C154.251 14.6002 154.416 14.2006 154.711 13.906C155.005 13.6114 155.405 13.4459 155.822 13.4459H167.562C167.972 13.4465 168.368 13.5966 168.676 13.8682L168.761 13.9527C169.036 14.2385 169.191 14.6198 169.192 15.0169V23.1756C169.185 23.5897 169.015 23.9843 168.719 24.2736C166.152 26.7125 162.731 28.0469 159.192 27.9898Z" fill="#CFC82A"/>
<path d="M159.191 27.9476C157.379 27.9594 155.582 27.624 153.896 26.9594C152.321 26.3424 150.886 25.4179 149.673 24.2398C148.475 23.0727 147.525 21.6768 146.877 20.1351C145.523 16.8426 145.523 13.1489 146.877 9.8564C147.527 8.3184 148.477 6.92571 149.673 5.76012C150.886 4.58207 152.321 3.65754 153.896 3.04052C155.582 2.37599 157.379 2.04056 159.191 2.05235C162.728 1.99752 166.146 3.33175 168.71 5.76856C169 6.05099 169.167 6.43643 169.175 6.8412C169.166 7.25638 168.993 7.65115 168.694 7.93921C168.394 8.22726 167.993 8.38515 167.578 8.37836C167.159 8.37728 166.756 8.21382 166.455 7.92228C164.492 6.07594 161.886 5.06969 159.191 5.11822C153.279 5.11822 149.056 9.27363 149.056 15C149.056 20.7263 153.279 24.8817 159.191 24.8817C161.596 24.91 163.937 24.1108 165.822 22.6182L165.99 22.4831V16.5709H155.855C155.448 16.5709 155.057 16.409 154.768 16.1207C154.48 15.8324 154.318 15.4414 154.318 15.0338C154.318 14.6261 154.48 14.2351 154.768 13.9468C155.057 13.6586 155.448 13.4966 155.855 13.4966H167.595C167.996 13.5009 168.382 13.6476 168.685 13.9105L168.769 13.9949C169.039 14.2738 169.19 14.646 169.191 15.0338V23.1925C169.184 23.5973 169.017 23.9828 168.727 24.2652C166.153 26.6938 162.729 28.016 159.191 27.9476Z" fill="#CFC82A"/>
<path d="M194.969 27.9899C194.544 27.9967 194.135 27.8352 193.829 27.5408C193.524 27.2464 193.347 26.8431 193.338 26.4189V16.571H179.825V26.4105C179.795 26.8214 179.611 27.2059 179.309 27.4866C179.008 27.7673 178.611 27.9233 178.199 27.9233C177.787 27.9233 177.39 27.7673 177.089 27.4866C176.787 27.2059 176.603 26.8214 176.573 26.4105V3.60644C176.603 3.19548 176.787 2.811 177.089 2.53033C177.39 2.24966 177.787 2.09363 178.199 2.09363C178.611 2.09363 179.008 2.24966 179.309 2.53033C179.611 2.811 179.795 3.19548 179.825 3.60644V13.4291H193.338V3.5811C193.347 3.15696 193.524 2.75359 193.829 2.4592C194.135 2.16481 194.544 2.00336 194.969 2.01015C195.408 2.00524 195.832 2.17188 196.151 2.47468C196.307 2.61458 196.432 2.78497 196.519 2.97529C196.606 3.16561 196.653 3.37181 196.658 3.5811V26.3852C196.657 26.6028 196.612 26.8181 196.526 27.0179C196.439 27.2178 196.313 27.3981 196.156 27.5481C195.998 27.698 195.811 27.8144 195.607 27.8904C195.403 27.9663 195.186 28.0001 194.969 27.9899Z" fill="#CFC82A"/>
<path d="M194.969 27.9561C194.764 27.9594 194.56 27.9223 194.369 27.8469C194.178 27.7714 194.004 27.6592 193.857 27.5164C193.709 27.3737 193.591 27.2033 193.51 27.015C193.428 26.8266 193.384 26.6241 193.381 26.4189V16.5287H179.766V26.4105C179.737 26.8127 179.556 27.1889 179.261 27.4635C178.966 27.7381 178.577 27.8907 178.174 27.8907C177.771 27.8907 177.382 27.7381 177.087 27.4635C176.792 27.1889 176.611 26.8127 176.582 26.4105V3.60641C176.611 3.2042 176.792 2.828 177.087 2.5534C177.382 2.2788 177.771 2.12616 178.174 2.12616C178.577 2.12616 178.966 2.2788 179.261 2.5534C179.556 2.828 179.737 3.2042 179.766 3.60641V13.4882H193.364V3.58107C193.367 3.37442 193.412 3.17047 193.494 2.98104C193.577 2.7916 193.696 2.62045 193.846 2.47748C193.995 2.33451 194.171 2.22258 194.364 2.14815C194.557 2.07373 194.762 2.0383 194.969 2.04391C195.394 2.04058 195.803 2.20437 196.109 2.49999C196.257 2.63815 196.375 2.8056 196.455 2.99171C196.535 3.17781 196.575 3.37852 196.574 3.58107V26.3851C196.575 26.5946 196.534 26.8022 196.453 26.9956C196.373 27.189 196.254 27.3641 196.104 27.5107C195.954 27.6572 195.777 27.7722 195.582 27.8487C195.387 27.9252 195.178 27.9617 194.969 27.9561Z" fill="#CFC82A"/>
<path d="M214.758 27.9899C214.462 27.9919 214.17 27.9162 213.913 27.7703C213.682 27.6382 213.489 27.4494 213.351 27.2218C213.214 26.9942 213.137 26.7353 213.127 26.4696V5.14358H204.58H204.411L204.259 5.06756H204.2H204.149H204.073C204.008 5.04515 203.945 5.01389 203.888 4.97466C203.832 4.95245 203.781 4.92104 203.736 4.88175C203.486 4.70712 203.292 4.46355 203.178 4.18074V4.08783L203.119 3.89358V3.74155C203.113 3.68825 203.113 3.63438 203.119 3.58108V3.47128C203.114 3.44048 203.114 3.40917 203.119 3.37837V3.24324V3.11655C203.145 3.02931 203.179 2.94453 203.22 2.86317L203.28 2.76182C203.321 2.6835 203.366 2.60738 203.415 2.53378L203.524 2.42398L203.626 2.33952L203.719 2.27195L203.896 2.1706L203.955 2.11993H204.006H204.09H204.2L204.394 2.0777H204.546H225.036H225.163L225.349 2.12837H225.467L225.577 2.18749C225.628 2.20863 225.677 2.23707 225.72 2.27195L225.813 2.33952C225.852 2.36074 225.887 2.38944 225.915 2.42398C226.014 2.50508 226.1 2.60211 226.168 2.71114L226.244 2.84628C226.282 2.91358 226.313 2.98428 226.337 3.05743L226.379 3.18412V3.29391C226.383 3.35016 226.383 3.40658 226.379 3.46283V3.67398C226.382 3.73024 226.382 3.78664 226.379 3.8429V3.96114L226.32 4.13851C226.215 4.38385 226.052 4.59981 225.844 4.76762C225.636 4.93542 225.391 5.04998 225.129 5.10135H224.808H216.362V26.3851C216.364 26.659 216.293 26.9283 216.154 27.1647C216.016 27.401 215.817 27.5957 215.577 27.728C215.331 27.8845 215.049 27.9747 214.758 27.9899Z" fill="#CFC82A"/>
<path d="M214.758 27.9561C214.462 27.9581 214.171 27.8824 213.913 27.7365C213.686 27.6083 213.496 27.4235 213.361 27.2C213.226 26.9765 213.152 26.722 213.145 26.4611V5.10978H204.58H204.411L204.259 5.06755H204.2H204.158H204.082L203.888 4.97464L203.744 4.88174C203.499 4.71186 203.308 4.47413 203.195 4.19761L203.153 4.07092L203.102 3.91045V3.82599C203.099 3.76691 203.099 3.70771 203.102 3.64863V3.48815C203.102 3.43748 203.102 3.40369 203.102 3.37836V3.23478V3.09119C203.102 3.01518 203.161 2.94761 203.195 2.8716L203.246 2.78714C203.294 2.71287 203.348 2.64229 203.406 2.57599L203.516 2.46619L203.618 2.38174L203.702 2.32261L203.938 2.17903H204.023L204.158 2.12836H204.335H224.868H225.079L225.265 2.17903L225.383 2.22126L225.493 2.28038C225.544 2.30152 225.593 2.32996 225.636 2.36484C225.669 2.38057 225.701 2.40044 225.729 2.42396L225.83 2.50842C225.92 2.59119 226 2.68481 226.067 2.78714L226.143 2.91383C226.179 2.98188 226.21 3.05245 226.236 3.12498L226.295 3.36991C226.295 3.45437 226.295 3.48815 226.295 3.52194V3.62329C226.299 3.65977 226.299 3.69661 226.295 3.73309C226.298 3.78372 226.298 3.83448 226.295 3.88511V3.99491L226.236 4.17228C226.135 4.39534 225.985 4.5922 225.796 4.7475C225.607 4.90279 225.385 5.01232 225.146 5.06755C225.042 5.08002 224.938 5.08002 224.834 5.06755H216.346V26.4273C216.344 26.6939 216.272 26.9555 216.138 27.1854C216.003 27.4153 215.809 27.6054 215.577 27.7365C215.327 27.8781 215.045 27.9537 214.758 27.9561Z" fill="#CFC82A"/>
<path d="M137.747 27.9898C137.314 27.9837 136.9 27.8113 136.59 27.5084C136.442 27.3679 136.324 27.199 136.243 27.0118C136.162 26.8246 136.119 26.623 136.117 26.4189V3.47971V3.31924V3.18411C136.205 2.86836 136.389 2.58763 136.643 2.38045C136.897 2.17328 137.209 2.04981 137.536 2.02701H137.68H137.781C138.123 2.02483 138.458 2.13054 138.737 2.32914C139.016 2.52774 139.225 2.80915 139.335 3.13343V3.17566V3.24323C139.361 3.35116 139.375 3.46161 139.377 3.57262V26.3767C139.368 26.8016 139.192 27.2058 138.887 27.5015C138.582 27.7973 138.172 27.9606 137.747 27.9561V27.9898Z" fill="#CFC82A"/>
<path d="M137.748 27.9476C137.324 27.9456 136.918 27.779 136.616 27.4831C136.472 27.3455 136.358 27.1804 136.279 26.9975C136.201 26.8147 136.16 26.6179 136.16 26.4189V3.48817V3.3277V3.19256C136.246 2.88608 136.425 2.61344 136.671 2.41116C136.917 2.20888 137.219 2.08664 137.536 2.0608H137.688H137.773C138.109 2.05943 138.436 2.16398 138.709 2.35959C138.982 2.5552 139.187 2.8319 139.293 3.15033C139.306 3.27104 139.306 3.3928 139.293 3.51351V26.3176C139.29 26.5228 139.246 26.7253 139.165 26.9136C139.083 27.1019 138.965 27.2723 138.818 27.4151C138.67 27.5578 138.496 27.6701 138.305 27.7455C138.114 27.821 137.91 27.8581 137.705 27.8547L137.748 27.9476Z" fill="#CFC82A"/>
</svg>
