<svg width="24" height="24" viewBox="0 0 24 24" fill="none" xmlns="http://www.w3.org/2000/svg">
<path d="M7.615 20C7.16833 20 6.78733 19.8427 6.472 19.528C6.15733 19.2133 6 18.8323 6 18.385V6H5V5H9V4.23H15V5H19V6H18V18.385C18 18.845 17.846 19.229 17.538 19.537C17.2293 19.8457 16.845 20 16.385 20H7.615ZM17 6H7V18.385C7 18.5643 7.05767 18.7117 7.173 18.827C7.28833 18.9423 7.43567 19 7.615 19H16.385C16.5383 19 16.6793 18.936 16.808 18.808C16.936 18.6793 17 18.5383 17 18.385V6ZM9.808 17H10.808V8H9.808V17ZM13.192 17H14.192V8H13.192V17Z" fill="#606060"/>
</svg>
