<svg width="55" height="24" viewBox="0 0 55 24" fill="none" xmlns="http://www.w3.org/2000/svg">
<g clip-path="url(#clip0_157_491)">
<path d="M21.3375 0.307368L14.2813 17.1406H9.67795L6.20553 3.70611C5.995 2.88063 5.81205 2.57684 5.17142 2.22779C4.12426 1.65895 2.395 1.12695 0.875 0.796L0.977526 0.307368H8.3889C9.33205 0.307368 10.1813 0.935368 10.3973 2.02274L12.2321 11.7644L16.7617 0.307368H21.3375ZM27.5607 0.307368L23.9601 17.1406H19.6047L23.2057 0.307368H27.5607ZM39.3746 11.6446C39.3927 7.20274 33.2327 6.95621 33.2729 4.97158C33.2876 4.36821 33.8624 3.72589 35.1205 3.56168C35.7436 3.48105 37.4653 3.41684 39.4154 4.31537L40.1784 0.743579C39.1306 0.364632 37.7822 0 36.1049 0C31.7996 0 28.7712 2.28674 28.747 5.56379C28.7188 7.98779 30.9102 9.33874 32.5582 10.1461C34.2556 10.9705 34.8249 11.5004 34.8171 12.2373C34.8049 13.3667 33.4613 13.8667 32.2123 13.8853C30.0219 13.92 28.7523 13.2933 27.7394 12.8215L26.9489 16.5116C27.9678 16.9785 29.8457 17.3842 31.7908 17.4048C36.3676 17.4048 39.3611 15.1442 39.3746 11.6446ZM50.743 17.1406H54.7697L51.2518 0.307368H47.5367C46.6988 0.307368 45.9946 0.793684 45.6822 1.54126L39.1474 17.1406H43.7207L44.6278 14.6261H50.2152L50.743 17.1406ZM45.882 11.1766L48.175 4.85516L49.4923 11.1766H45.8817H45.882ZM33.1346 21.7741H31.3649V23.4211H33.3443V23.9162H30.7687V19.3474H33.2428V19.8425H31.3649V21.2861H33.1344V21.7745L33.1346 21.7741ZM34.2586 19.1034H34.8548V23.916H34.2586V19.1034ZM36.3592 22.384C36.3727 23.1909 36.8813 23.5229 37.4843 23.5229C37.9116 23.5229 38.1758 23.4484 38.3931 23.3537L38.5013 23.7808C38.2912 23.8756 37.9253 23.9907 37.403 23.9907C36.3933 23.9907 35.7902 23.3198 35.7902 22.3299C35.7902 21.3404 36.3727 20.5674 37.3287 20.5674C38.4066 20.5674 38.6845 21.5032 38.6845 22.1063C38.6845 22.2282 38.6775 22.3162 38.6638 22.3842L36.3592 22.384ZM38.1081 21.9571C38.115 21.5844 37.9523 20.9945 37.2811 20.9945C36.671 20.9945 36.4133 21.5436 36.3657 21.9571H38.1081ZM41.9299 23.8008C41.7742 23.8756 41.4283 23.9909 40.9878 23.9909C39.9982 23.9909 39.3542 23.3198 39.3542 22.3164C39.3542 21.3063 40.0453 20.5676 41.1165 20.5676C41.4689 20.5676 41.7807 20.6554 41.9434 20.7438L41.8083 21.1979C41.6653 21.1234 41.4417 21.0417 41.1165 21.0417C40.3638 21.0417 39.9575 21.6044 39.9575 22.2827C39.9575 23.0417 40.4455 23.5095 41.0963 23.5095C41.4352 23.5095 41.6588 23.4282 41.8283 23.3537L41.9299 23.8008ZM43.6032 19.8488V20.6352H44.4571V21.0891H43.6032V22.8585C43.6032 23.2657 43.7186 23.4958 44.0506 23.4958C44.2131 23.4958 44.3083 23.4825 44.3965 23.4549L44.4236 23.9097C44.3083 23.9501 44.1253 23.9907 43.8948 23.9907C43.6167 23.9907 43.3929 23.8958 43.2508 23.7402C43.0881 23.5568 43.0203 23.2657 43.0203 22.8792V21.0891H42.5116V20.6352H43.0203V20.0253L43.6034 19.8491L43.6032 19.8488ZM45.2902 21.6589C45.2902 21.2724 45.283 20.9404 45.263 20.6352H45.7851L45.8125 21.2857H45.8323C45.9817 20.8455 46.3474 20.5674 46.7472 20.5674C46.8085 20.5674 46.8561 20.5743 46.9104 20.5808V21.1438C46.8493 21.1299 46.7885 21.1299 46.7066 21.1299C46.2868 21.1299 45.9881 21.4417 45.907 21.8895C45.893 21.9814 45.8862 22.0743 45.8866 22.1674V23.9164H45.2902V21.6589ZM50.5767 22.2484C50.5767 23.4619 49.7291 23.9907 48.943 23.9907C48.0615 23.9907 47.3704 23.3398 47.3704 22.3029C47.3704 21.2114 48.0956 20.5676 48.9973 20.5676C49.9394 20.5676 50.5767 21.2516 50.5767 22.2484ZM47.9803 22.2825C47.9803 23.0011 48.387 23.5436 48.9699 23.5436C49.5396 23.5436 49.9664 23.0076 49.9664 22.2688C49.9664 21.7131 49.6885 21.0145 48.9834 21.0145C48.2855 21.0145 47.9803 21.6657 47.9803 22.2825ZM51.4908 21.5232C51.4908 21.1777 51.4836 20.9063 51.4634 20.6354H51.9923L52.0262 21.1777H52.0396C52.2024 20.8724 52.5819 20.5676 53.1243 20.5676C53.5782 20.5676 54.2834 20.8387 54.2834 21.9636V23.9162H53.687V22.0248C53.687 21.4964 53.4904 21.0554 52.9278 21.0554C52.5413 21.0554 52.2361 21.3335 52.1281 21.6655C52.1007 21.7402 52.0872 21.8417 52.0872 21.9436V23.9162H51.4908V21.5232Z" fill="#1A1F71"/>
</g>
<defs>
<clipPath id="clip0_157_491">
<rect width="53.8947" height="24" fill="white" transform="translate(0.875)"/>
</clipPath>
</defs>
</svg>
