<svg width="28" height="24" viewBox="0 0 28 24" fill="none" xmlns="http://www.w3.org/2000/svg">
<g clip-path="url(#clip0_200_459)">
<path fill-rule="evenodd" clip-rule="evenodd" d="M12.2862 0.285714C12.2862 0.127919 12.4141 0 12.5719 0H15.6195C15.7773 0 15.9052 0.127919 15.9052 0.285714V1.63147L16.8568 0.679874C16.9684 0.568297 17.1493 0.568297 17.2609 0.679874L19.4159 2.83488C19.5275 2.94644 19.5275 3.12735 19.4159 3.23893L18.4643 4.19048H19.81C19.9677 4.19048 20.0957 4.3184 20.0957 4.47619V7.52381C20.0957 7.6816 19.9677 7.80952 19.81 7.80952H18.4643L19.4158 8.76103C19.5274 8.87261 19.5274 9.0535 19.4158 9.16509L17.2608 11.3201C17.1493 11.4317 16.9684 11.4317 16.8568 11.3201L15.9052 10.3685V11.7143C15.9052 11.8721 15.7773 12 15.6195 12H12.5719C12.4141 12 12.2862 11.8721 12.2862 11.7143V10.3686L11.3347 11.3202C11.2811 11.3737 11.2084 11.4038 11.1326 11.4038C11.0568 11.4038 10.9842 11.3737 10.9306 11.3202L8.77561 9.16516C8.66403 9.05358 8.66403 8.87267 8.77561 8.76109L9.72717 7.80952H8.38142C8.22363 7.80952 8.0957 7.6816 8.0957 7.52381V4.47619C8.0957 4.3184 8.22363 4.19048 8.38142 4.19048H9.72717L8.77555 3.23886C8.66397 3.12728 8.66397 2.94638 8.77555 2.8348L10.9305 0.679808C11.0421 0.568229 11.223 0.568229 11.3346 0.679808L12.2862 1.63138V0.285714ZM14.0957 8.7619C15.7263 8.7619 17.0481 7.44008 17.0481 5.80952C17.0481 4.17897 15.7263 2.85714 14.0957 2.85714C12.4652 2.85714 11.1433 4.17897 11.1433 5.80952C11.1433 7.44008 12.4652 8.7619 14.0957 8.7619Z" fill="#606060"/>
<path fill-rule="evenodd" clip-rule="evenodd" d="M19.3331 12.2857C19.3331 12.1279 19.461 12 19.6188 12H22.6664C22.8241 12 22.9521 12.1279 22.9521 12.2857V13.6315L23.9037 12.6799C24.0153 12.5683 24.1961 12.5683 24.3077 12.6799L26.4628 14.8349C26.5744 14.9464 26.5744 15.1274 26.4628 15.2389L25.5111 16.1905H26.8569C27.0146 16.1905 27.1426 16.3184 27.1426 16.4762V19.5238C27.1426 19.6815 27.0146 19.8095 26.8569 19.8095H25.5111L26.4628 20.761C26.5742 20.8726 26.5742 21.0535 26.4628 21.1651L24.3077 23.32C24.1961 23.4316 24.0152 23.4316 23.9037 23.32L22.9521 22.3686V23.7143C22.9521 23.872 22.8241 24 22.6664 24H19.6188C19.461 24 19.3331 23.872 19.3331 23.7143V22.3686L18.3815 23.3202C18.3279 23.3737 18.2553 23.4038 18.1795 23.4038C18.1037 23.4038 18.0311 23.3737 17.9775 23.3202L15.8225 21.1651C15.7109 21.0535 15.7109 20.8728 15.8225 20.7611L16.774 19.8095H15.4283C15.2705 19.8095 15.1426 19.6815 15.1426 19.5238V16.4762C15.1426 16.3184 15.2705 16.1905 15.4283 16.1905H16.774L15.8224 15.2389C15.7108 15.1273 15.7108 14.9464 15.8224 14.8348L17.9774 12.6798C18.089 12.5682 18.2699 12.5682 18.3815 12.6798L19.3331 13.6314V12.2857ZM21.1426 20.7619C22.7731 20.7619 24.095 19.44 24.095 17.8095C24.095 16.179 22.7731 14.8571 21.1426 14.8571C19.512 14.8571 18.1902 16.179 18.1902 17.8095C18.1902 19.44 19.512 20.7619 21.1426 20.7619Z" fill="#606060"/>
<path fill-rule="evenodd" clip-rule="evenodd" d="M5.33361 12C5.17582 12 5.0479 12.1279 5.0479 12.2857V13.6314L4.09634 12.6798C3.98476 12.5682 3.80384 12.5682 3.69226 12.6798L1.53727 14.8348C1.4257 14.9464 1.4257 15.1273 1.53727 15.2389L2.48889 16.1905H1.14314C0.985341 16.1905 0.857422 16.3184 0.857422 16.4762V19.5238C0.857422 19.6815 0.985341 19.8095 1.14314 19.8095H2.48889L1.53732 20.7611C1.42574 20.8728 1.42574 21.0535 1.53732 21.1651L3.69232 23.3202C3.7459 23.3737 3.81856 23.4038 3.89434 23.4038C3.97013 23.4038 4.04279 23.3737 4.09637 23.3202L5.0479 22.3686V23.7143C5.0479 23.872 5.17582 24 5.33361 24H8.38123C8.53902 24 8.66695 23.872 8.66695 23.7143V22.3686L9.61849 23.32C9.73007 23.4316 9.91098 23.4316 10.0226 23.32L12.1776 21.1651C12.2891 21.0535 12.2891 20.8726 12.1776 20.761L11.2261 19.8095H12.5717C12.7295 19.8095 12.8574 19.6815 12.8574 19.5238V16.4762C12.8574 16.3184 12.7295 16.1905 12.5717 16.1905H11.2261L12.1776 15.2389C12.2892 15.1274 12.2892 14.9464 12.1776 14.8349L10.0226 12.6799C9.91102 12.5683 9.73013 12.5683 9.61855 12.6799L8.66695 13.6315V12.2857C8.66695 12.1279 8.53902 12 8.38123 12H5.33361ZM9.8098 17.8095C9.8098 19.44 8.48797 20.7619 6.85742 20.7619C5.22687 20.7619 3.90504 19.44 3.90504 17.8095C3.90504 16.179 5.22687 14.8571 6.85742 14.8571C8.48797 14.8571 9.8098 16.179 9.8098 17.8095Z" fill="#606060"/>
</g>
<defs>
<clipPath id="clip0_200_459">
<rect width="26.2857" height="24" fill="white" transform="translate(0.857422)"/>
</clipPath>
</defs>
</svg>
