<svg width="54" height="49" viewBox="0 0 54 49" fill="none" xmlns="http://www.w3.org/2000/svg">
<g clip-path="url(#clip0_62_409)">
<path d="M41.1728 35.0325C37.628 40.8599 31.2303 44.75 23.9268 44.75C12.7771 44.75 3.73856 35.6837 3.73856 24.5C3.73856 13.3162 12.7771 4.25 23.9268 4.25C33.9421 4.25 42.254 11.5653 43.8416 21.1597L39.0675 17.3287L37.1991 19.6713L45.6612 26.4616L53.3333 19.6211L51.3463 17.3788L47.5635 20.7517C45.7693 9.27725 35.87 0.5 23.9268 0.5C10.7124 0.5 0 11.2452 0 24.5C0 37.7548 10.7124 48.5 23.9268 48.5C32.5279 48.5 40.0689 43.9479 44.286 37.1144L41.1728 35.0325Z" fill="#606060"/>
<path d="M22.9142 30.5V28.1063H17.5579C17.6987 27.874 17.881 27.6355 18.105 27.3909C18.3354 27.1464 18.8762 26.6512 19.7273 25.9052C20.5785 25.1593 21.1671 24.5876 21.4935 24.1903C21.9863 23.5911 22.3447 23.0193 22.5687 22.4752C22.7991 21.9249 22.9142 21.3472 22.9142 20.7419C22.9142 19.678 22.5175 18.7884 21.7239 18.0731C20.9305 17.3577 19.8393 17 18.4506 17C17.1835 17 16.1275 17.3088 15.2829 17.9263C14.4382 18.5439 13.9358 19.5619 13.7758 20.9803L16.4635 21.2371C16.5147 20.4851 16.7067 19.9471 17.0395 19.6229C17.3723 19.2989 17.8202 19.1369 18.3834 19.1369C18.953 19.1369 19.3978 19.2928 19.7177 19.6047C20.0441 19.9103 20.2073 20.3505 20.2073 20.9253C20.2073 21.4449 20.0217 21.9708 19.6505 22.5027C19.3754 22.8879 18.6298 23.6216 17.4139 24.7039C15.9037 26.0428 14.8925 27.1189 14.3806 27.932C13.8686 28.7391 13.5614 29.5951 13.459 30.5H22.9142Z" fill="#606060"/>
<path fill-rule="evenodd" clip-rule="evenodd" d="M30.0368 27.7945V30.5H32.6479V27.7945H34.3949V25.5292H32.6479V17H30.3824L24.2773 25.5384V27.7945H30.0368ZM30.0368 20.9344V25.5292H26.8019L30.0368 20.9344Z" fill="#606060"/>
</g>
<defs>
<clipPath id="clip0_62_409">
<rect width="53.3333" height="48" fill="white" transform="translate(0 0.5)"/>
</clipPath>
</defs>
</svg>
