<svg width="30" height="30" viewBox="0 0 30 30" fill="none" xmlns="http://www.w3.org/2000/svg">
<path d="M20 23.75C19.337 23.75 18.7011 23.4866 18.2322 23.0178C17.7634 22.5489 17.5 21.913 17.5 21.25C17.5 20.587 17.7634 19.9511 18.2322 19.4822C18.7011 19.0134 19.337 18.75 20 18.75C20.663 18.75 21.2989 19.0134 21.7678 19.4822C22.2366 19.9511 22.5 20.587 22.5 21.25C22.5 21.913 22.2366 22.5489 21.7678 23.0178C21.2989 23.4866 20.663 23.75 20 23.75ZM7.5 23.75C6.83696 23.75 6.20107 23.4866 5.73223 23.0178C5.26339 22.5489 5 21.913 5 21.25C5 20.587 5.26339 19.9511 5.73223 19.4822C6.20107 19.0134 6.83696 18.75 7.5 18.75C8.16304 18.75 8.79893 19.0134 9.26777 19.4822C9.73661 19.9511 10 20.587 10 21.25C10 21.913 9.73661 22.5489 9.26777 23.0178C8.79893 23.4866 8.16304 23.75 7.5 23.75Z" stroke="#606060" stroke-width="1.5" stroke-miterlimit="1.5" stroke-linecap="round" stroke-linejoin="round"/>
<path d="M17.4375 21.25H11.25V8.25C11.25 8.05109 11.329 7.86032 11.4697 7.71967C11.6103 7.57902 11.8011 7.5 12 7.5H28.75M22.9375 21.25H25.5C25.5985 21.25 25.696 21.2306 25.787 21.1929C25.878 21.1552 25.9607 21.1 26.0303 21.0303C26.1 20.9607 26.1552 20.878 26.1929 20.787C26.2306 20.696 26.25 20.5985 26.25 20.5V14.375" stroke="#606060" stroke-width="1.5" stroke-linecap="round"/>
<path d="M27.5 11.25H22.5" stroke="#606060" stroke-width="1.5" stroke-linecap="round" stroke-linejoin="round"/>
<path d="M11.25 11.25H4.2375C4.09253 11.25 3.95067 11.2921 3.8291 11.3711C3.70753 11.45 3.61145 11.5626 3.5525 11.695L1.315 16.73C1.27237 16.8256 1.25023 16.9291 1.25 17.0337V20.5C1.25 20.5985 1.2694 20.696 1.30709 20.787C1.34478 20.878 1.40003 20.9607 1.46967 21.0303C1.53931 21.1 1.62199 21.1552 1.71299 21.1929C1.80398 21.2306 1.90151 21.25 2 21.25H4.375M11.25 21.25H10" stroke="#606060" stroke-width="1.5" stroke-linecap="round"/>
</svg>
