<svg width="77" height="77" viewBox="0 0 77 77" fill="none" xmlns="http://www.w3.org/2000/svg">
<g filter="url(#filter0_d_214_1372)">
<circle cx="38.5" cy="34.5" r="28.5" fill="#60D669"/>
<path d="M49.4999 23.552C48.1247 22.1034 46.4867 20.9549 44.6814 20.1733C42.8761 19.3918 40.9396 18.993 38.985 19.0001C30.795 19.0001 24.12 25.9609 24.12 34.5015C24.12 37.2389 24.81 39.8981 26.1 42.2444L24 50.2845L31.875 48.1259C34.05 49.3616 36.495 50.0186 38.985 50.0186C47.1749 50.0186 53.8499 43.0578 53.8499 34.5172C53.8499 30.372 52.3049 26.4771 49.4999 23.552ZM38.985 47.3907C36.765 47.3907 34.59 46.765 32.685 45.5919L32.235 45.3103L27.555 46.593L28.8 41.8377L28.5 41.3528C27.2666 39.299 26.6117 36.9249 26.61 34.5015C26.61 27.4 32.16 21.6123 38.97 21.6123C42.2699 21.6123 45.3749 22.9576 47.6999 25.3978C48.8512 26.5928 49.7635 28.0142 50.384 29.5796C51.0046 31.145 51.321 32.8233 51.3149 34.5172C51.3449 41.6187 45.7949 47.3907 38.985 47.3907ZM45.7649 37.7551C45.3899 37.5674 43.5599 36.6289 43.2299 36.4881C42.8849 36.363 42.6449 36.3004 42.3899 36.6758C42.1349 37.0669 41.4299 37.9428 41.2199 38.1931C41.0099 38.459 40.785 38.4903 40.41 38.2869C40.035 38.0992 38.835 37.6769 37.425 36.363C36.315 35.3306 35.58 34.0635 35.355 33.6725C35.145 33.2814 35.325 33.0781 35.52 32.8747C35.685 32.7027 35.895 32.4211 36.075 32.2021C36.255 31.9831 36.33 31.8111 36.45 31.5608C36.57 31.2949 36.51 31.0759 36.42 30.8882C36.33 30.7005 35.58 28.7921 35.28 28.01C34.98 27.2592 34.665 27.353 34.44 27.3374H33.72C33.465 27.3374 33.075 27.4312 32.73 27.8223C32.4 28.2134 31.44 29.1519 31.44 31.0602C31.44 32.9686 32.775 34.8144 32.955 35.0647C33.135 35.3306 35.58 39.2411 39.3 40.9148C40.185 41.3215 40.875 41.5562 41.4149 41.7282C42.2999 42.0254 43.1099 41.9785 43.7549 41.8847C44.4749 41.7752 45.9599 40.9461 46.2599 40.0389C46.5749 39.1316 46.5749 38.3652 46.4699 38.1931C46.3649 38.021 46.1399 37.9428 45.7649 37.7551Z" fill="white"/>
</g>
<defs>
<filter id="filter0_d_214_1372" x="0" y="0" width="77" height="77" filterUnits="userSpaceOnUse" color-interpolation-filters="sRGB">
<feFlood flood-opacity="0" result="BackgroundImageFix"/>
<feColorMatrix in="SourceAlpha" type="matrix" values="0 0 0 0 0 0 0 0 0 0 0 0 0 0 0 0 0 0 127 0" result="hardAlpha"/>
<feOffset dy="4"/>
<feGaussianBlur stdDeviation="5"/>
<feComposite in2="hardAlpha" operator="out"/>
<feColorMatrix type="matrix" values="0 0 0 0 0 0 0 0 0 0 0 0 0 0 0 0 0 0 0.1 0"/>
<feBlend mode="normal" in2="BackgroundImageFix" result="effect1_dropShadow_214_1372"/>
<feBlend mode="normal" in="SourceGraphic" in2="effect1_dropShadow_214_1372" result="shape"/>
</filter>
</defs>
</svg>
