<svg width="56" height="57" viewBox="0 0 56 57" fill="none" xmlns="http://www.w3.org/2000/svg">
<path d="M7 28.5H28V32H7V28.5ZM3.5 19.75H21V23.25H3.5V19.75Z" fill="#606060"/>
<path d="M52.3581 29.5605L47.1081 17.3105C46.9734 16.9956 46.7491 16.7273 46.4632 16.5388C46.1773 16.3502 45.8423 16.2498 45.4999 16.25H40.2499V12.75C40.2499 12.2859 40.0655 11.8408 39.7373 11.5126C39.4091 11.1844 38.964 11 38.4999 11H10.4999V14.5H36.7499V36.473C35.9524 36.936 35.2546 37.5524 34.6965 38.2864C34.1385 39.0205 33.7312 39.8578 33.4984 40.75H22.5014C22.0754 39.1003 21.0625 37.6627 19.6523 36.7064C18.2422 35.7502 16.5318 35.3411 14.8416 35.5558C13.1514 35.7705 11.5976 36.5942 10.4713 37.8726C9.34501 39.151 8.72363 40.7962 8.72363 42.5C8.72363 44.2038 9.34501 45.849 10.4713 47.1274C11.5976 48.4058 13.1514 49.2295 14.8416 49.4442C16.5318 49.6589 18.2422 49.2498 19.6523 48.2936C21.0625 47.3373 22.0754 45.8997 22.5014 44.25H33.4984C33.879 45.7519 34.7497 47.084 35.9725 48.0356C37.1953 48.9871 38.7004 49.5037 40.2499 49.5037C41.7993 49.5037 43.3044 48.9871 44.5272 48.0356C45.75 47.084 46.6207 45.7519 47.0014 44.25H50.7499C51.214 44.25 51.6591 44.0656 51.9873 43.7374C52.3155 43.4093 52.4999 42.9641 52.4999 42.5V30.25C52.4999 30.0129 52.4517 29.7783 52.3581 29.5605ZM15.7499 46C15.0576 46 14.3809 45.7947 13.8054 45.4101C13.2298 45.0256 12.7812 44.4789 12.5163 43.8394C12.2514 43.1999 12.1821 42.4961 12.3171 41.8172C12.4522 41.1383 12.7855 40.5146 13.275 40.0251C13.7645 39.5356 14.3881 39.2023 15.067 39.0673C15.746 38.9322 16.4497 39.0015 17.0892 39.2664C17.7288 39.5313 18.2754 39.9799 18.66 40.5555C19.0446 41.1311 19.2499 41.8078 19.2499 42.5C19.2489 43.428 18.8799 44.3177 18.2237 44.9739C17.5675 45.63 16.6778 45.9991 15.7499 46ZM40.2499 19.75H44.3449L48.0969 28.5H40.2499V19.75ZM40.2499 46C39.5576 46 38.8809 45.7947 38.3054 45.4101C37.7298 45.0256 37.2812 44.4789 37.0163 43.8394C36.7514 43.1999 36.6821 42.4961 36.8171 41.8172C36.9522 41.1383 37.2855 40.5146 37.775 40.0251C38.2645 39.5356 38.8881 39.2023 39.567 39.0673C40.246 38.9322 40.9497 39.0015 41.5892 39.2664C42.2288 39.5313 42.7754 39.9799 43.16 40.5555C43.5446 41.1311 43.7499 41.8078 43.7499 42.5C43.7489 43.428 43.3799 44.3177 42.7237 44.9739C42.0675 45.63 41.1778 45.9991 40.2499 46ZM48.9999 40.75H47.0014C46.6159 39.251 45.7439 37.9223 44.522 36.9722C43.3002 36.0221 41.7976 35.5043 40.2499 35.5V32H48.9999V40.75Z" fill="#606060"/>
</svg>
