<svg width="30" height="30" viewBox="0 0 30 30" fill="none" xmlns="http://www.w3.org/2000/svg">
<path d="M18.7828 13.3125V7.6875C18.7828 6.4443 18.2889 5.25201 17.4098 4.37294C16.5307 3.49386 15.3385 3 14.0953 3C12.8521 3 11.6598 3.49386 10.7807 4.37294C9.90162 5.25201 9.40776 6.4443 9.40776 7.6875V13.3125M23.6028 10.8212L25.1815 25.8212C25.269 26.6525 24.619 27.375 23.7828 27.375H4.40776C4.21052 27.3752 4.01544 27.3339 3.83519 27.2538C3.65495 27.1737 3.49357 27.0566 3.36154 26.9101C3.2295 26.7636 3.12977 26.5909 3.06882 26.4033C3.00788 26.2157 2.98707 26.0174 3.00776 25.8212L4.58776 10.8212C4.6242 10.4757 4.78729 10.1559 5.04557 9.92345C5.30385 9.69102 5.63904 9.56244 5.98651 9.5625H22.204C22.924 9.5625 23.5278 10.1062 23.6028 10.8212ZM9.87651 13.3125C9.87651 13.4368 9.82712 13.556 9.73921 13.644C9.65131 13.7319 9.53208 13.7812 9.40776 13.7812C9.28344 13.7812 9.16421 13.7319 9.0763 13.644C8.98839 13.556 8.93901 13.4368 8.93901 13.3125C8.93901 13.1882 8.98839 13.069 9.0763 12.981C9.16421 12.8931 9.28344 12.8438 9.40776 12.8438C9.53208 12.8438 9.65131 12.8931 9.73921 12.981C9.82712 13.069 9.87651 13.1882 9.87651 13.3125ZM19.2515 13.3125C19.2515 13.4368 19.2021 13.556 19.1142 13.644C19.0263 13.7319 18.9071 13.7812 18.7828 13.7812C18.6584 13.7812 18.5392 13.7319 18.4513 13.644C18.3634 13.556 18.314 13.4368 18.314 13.3125C18.314 13.1882 18.3634 13.069 18.4513 12.981C18.5392 12.8931 18.6584 12.8438 18.7828 12.8438C18.9071 12.8438 19.0263 12.8931 19.1142 12.981C19.2021 13.069 19.2515 13.1882 19.2515 13.3125Z" stroke="#606060" stroke-width="1.5" stroke-linecap="round" stroke-linejoin="round"/>
<rect x="21" y="22" width="7" height="7" rx="3.5" fill="#E01A1A"/>
</svg>
