<svg width="19" height="18" viewBox="0 0 19 18" fill="none" xmlns="http://www.w3.org/2000/svg">
<path d="M17.5752 3.16304C17.7257 3.02634 17.8458 2.8628 17.9284 2.68195C18.011 2.5011 18.0546 2.30657 18.0565 2.10971C18.0584 1.91285 18.0186 1.71761 17.9395 1.53536C17.8604 1.35312 17.7436 1.18753 17.5958 1.04826C17.448 0.908988 17.2722 0.798822 17.0787 0.724189C16.8852 0.649556 16.6778 0.611951 16.4687 0.613568C16.2596 0.615186 16.0529 0.655993 15.8607 0.733608C15.6686 0.811224 15.4947 0.924095 15.3494 1.06563L9.03719 7.00598L2.72711 1.06563C2.58292 0.919968 2.40906 0.803134 2.21587 0.7221C2.02268 0.641066 1.81414 0.597493 1.60268 0.593981C1.39122 0.590468 1.18117 0.627089 0.985067 0.701656C0.788965 0.776224 0.610826 0.887212 0.461277 1.028C0.311727 1.16879 0.193831 1.33649 0.114623 1.5211C0.0354137 1.70571 -0.0034859 1.90345 0.000245095 2.10252C0.00397609 2.30159 0.0502612 2.49792 0.136339 2.67978C0.222416 2.86165 0.346522 3.02533 0.501254 3.16107L6.80713 9.10339L0.497055 15.0437C0.218865 15.3248 0.0674162 15.6965 0.074615 16.0806C0.0818138 16.4647 0.247098 16.8312 0.535646 17.1028C0.824195 17.3745 1.21348 17.5301 1.62148 17.5369C2.02949 17.5436 2.42436 17.4011 2.72291 17.1392L9.03719 11.1988L15.3473 17.1411C15.6458 17.403 16.0407 17.5456 16.4487 17.5388C16.8567 17.5321 17.246 17.3765 17.5345 17.1048C17.8231 16.8332 17.9884 16.4667 17.9956 16.0826C18.0028 15.6985 17.8513 15.3268 17.5731 15.0457L11.2672 9.10339L17.5752 3.16304Z" fill="#606060"/>
</svg>
