<svg width="56" height="57" viewBox="0 0 56 57" fill="none" xmlns="http://www.w3.org/2000/svg">
<path d="M28 5.75C19.3047 5.75 12.25 12.4645 12.25 20.7344C12.25 30.25 22.75 45.3295 26.6055 50.538C26.7655 50.7578 26.9753 50.9367 27.2176 51.0601C27.46 51.1834 27.7281 51.2477 28 51.2477C28.2719 51.2477 28.54 51.1834 28.7824 51.0601C29.0247 50.9367 29.2345 50.7578 29.3945 50.538C33.25 45.3317 43.75 30.2577 43.75 20.7344C43.75 12.4645 36.6953 5.75 28 5.75Z" stroke="#606060" stroke-width="3.5" stroke-linecap="round" stroke-linejoin="round"/>
<path d="M28 26.75C30.8995 26.75 33.25 24.3995 33.25 21.5C33.25 18.6005 30.8995 16.25 28 16.25C25.1005 16.25 22.75 18.6005 22.75 21.5C22.75 24.3995 25.1005 26.75 28 26.75Z" stroke="#606060" stroke-width="3.5" stroke-linecap="round" stroke-linejoin="round"/>
</svg>
