<svg width="27" height="24" viewBox="0 0 27 24" fill="none" xmlns="http://www.w3.org/2000/svg">
<path d="M25.9445 5.19124L16.7137 0.114304C16.5774 0.0393188 16.4244 0 16.2688 0C16.1132 0 15.9602 0.0393188 15.8239 0.114304L6.5931 5.19124C6.44837 5.27092 6.32769 5.38799 6.24363 5.53022C6.15958 5.67246 6.11523 5.83464 6.11523 5.99986C6.11523 6.16507 6.15958 6.32725 6.24363 6.46949C6.32769 6.61172 6.44837 6.72879 6.5931 6.80847L15.3457 11.6223V21.5168L12.5433 19.9753L11.6534 21.5916L15.8239 23.8854C15.9601 23.9606 16.1132 24 16.2688 24C16.4244 24 16.5775 23.9606 16.7137 23.8854L25.9445 18.8085C26.0893 18.7289 26.2101 18.6118 26.2942 18.4696C26.3783 18.3273 26.4227 18.1651 26.4227 17.9999V5.99986C26.4227 5.83461 26.3783 5.67241 26.2942 5.53017C26.2101 5.38794 26.0893 5.27088 25.9445 5.19124ZM16.2688 1.97708L23.5842 5.99986L16.2688 10.0226L8.95342 5.99986L16.2688 1.97708ZM24.5765 17.4543L17.1919 21.5159V11.6214L24.5765 7.55986V17.4543Z" fill="#606060"/>
<path d="M7.9608 11.9999H0.576172V10.1537H7.9608V11.9999ZM9.80696 19.3845H2.42233V17.5383H9.80696V19.3845ZM11.6531 15.6922H4.26849V13.846H11.6531V15.6922Z" fill="#606060"/>
</svg>
