<svg width="22" height="16" viewBox="0 0 22 16" fill="none" xmlns="http://www.w3.org/2000/svg">
<path d="M8.85707 11.2143L14.4178 8L8.85707 4.78571V11.2143ZM21.2428 2.825C21.3821 3.32857 21.4785 4.00357 21.5428 4.86071C21.6178 5.71786 21.6499 6.45714 21.6499 7.1L21.7142 8C21.7142 10.3464 21.5428 12.0714 21.2428 13.175C20.9749 14.1393 20.3535 14.7607 19.3892 15.0286C18.8856 15.1679 17.9642 15.2643 16.5499 15.3286C15.1571 15.4036 13.8821 15.4357 12.7035 15.4357L10.9999 15.5C6.51064 15.5 3.71422 15.3286 2.61064 15.0286C1.64636 14.7607 1.02493 14.1393 0.757073 13.175C0.617787 12.6714 0.521359 11.9964 0.457073 11.1393C0.382073 10.2821 0.34993 9.54286 0.34993 8.9L0.285645 8C0.285645 5.65357 0.457073 3.92857 0.757073 2.825C1.02493 1.86071 1.64636 1.23929 2.61064 0.971429C3.11422 0.832143 4.03564 0.735714 5.44993 0.671428C6.84279 0.596428 8.11779 0.564286 9.29636 0.564286L10.9999 0.5C15.4892 0.5 18.2856 0.671429 19.3892 0.971429C20.3535 1.23929 20.9749 1.86071 21.2428 2.825Z" fill="white"/>
</svg>
