<svg width="182" height="65" viewBox="0 0 182 65" fill="none" xmlns="http://www.w3.org/2000/svg">
<path d="M15.028 20.476H7.104C6.22667 22.4547 5.788 23.8267 5.788 24.592C5.788 25.152 5.99333 25.5067 6.404 25.656C6.83333 25.8053 7.468 25.88 8.308 25.88V27H0.636V25.88C1.084 25.824 1.46667 25.7493 1.784 25.656C2.12 25.5627 2.40933 25.432 2.652 25.264C2.91333 25.096 3.13733 24.8813 3.324 24.62C3.51067 24.34 3.688 24.004 3.856 23.612L11.22 5.16H13.292L19.984 21.512C20.376 22.464 20.7027 23.2107 20.964 23.752C21.244 24.2933 21.5333 24.7133 21.832 25.012C22.1493 25.292 22.504 25.488 22.896 25.6C23.3067 25.712 23.8293 25.796 24.464 25.852V27H13.88V25.852C14.776 25.8147 15.42 25.7213 15.812 25.572C16.204 25.4227 16.4 25.124 16.4 24.676C16.4 24.4147 16.3347 24.0787 16.204 23.668C16.0733 23.2573 15.896 22.7533 15.672 22.156L15.028 20.476ZM7.748 18.796H14.412L11.192 10.312H11.08L7.748 18.796ZM45.5926 27H26.3006V25.88C26.9166 25.8613 27.4206 25.8053 27.8126 25.712C28.2046 25.6187 28.5033 25.46 28.7086 25.236C28.914 25.012 29.054 24.6947 29.1286 24.284C29.2033 23.8733 29.2406 23.3413 29.2406 22.688V9.752C29.2406 9.09867 29.2033 8.576 29.1286 8.184C29.0726 7.77333 28.9513 7.456 28.7646 7.232C28.578 6.98933 28.3073 6.83067 27.9526 6.756C27.6166 6.66267 27.1686 6.59733 26.6086 6.56V5.44H36.2686V6.56C35.634 6.57867 35.1206 6.63467 34.7286 6.728C34.3553 6.82133 34.066 6.98933 33.8606 7.232C33.6553 7.47467 33.5153 7.81067 33.4406 8.24C33.3846 8.66933 33.3566 9.23867 33.3566 9.948V21.68C33.3566 22.464 33.4313 23.108 33.5806 23.612C33.7486 24.0973 34.0286 24.48 34.4206 24.76C34.8126 25.0213 35.3353 25.208 35.9886 25.32C36.642 25.4133 37.454 25.46 38.4246 25.46C39.5073 25.46 40.4126 25.3947 41.1406 25.264C41.8686 25.1333 42.4753 24.8907 42.9606 24.536C43.4646 24.1627 43.866 23.668 44.1646 23.052C44.4633 22.436 44.7153 21.6333 44.9206 20.644H46.0406L45.5926 27ZM64.4053 21.764L70.8733 5.44H79.0493V6.56C78.4333 6.56 77.9293 6.62533 77.5373 6.756C77.164 6.868 76.8747 7.08267 76.6693 7.4C76.464 7.71733 76.324 8.156 76.2493 8.716C76.1933 9.25733 76.1653 9.948 76.1653 10.788V21.652C76.1653 22.5853 76.2027 23.3227 76.2773 23.864C76.352 24.4053 76.5013 24.8253 76.7253 25.124C76.9493 25.4227 77.2667 25.6187 77.6773 25.712C78.1067 25.8053 78.6667 25.8613 79.3573 25.88V27H68.8293V25.88C69.52 25.8613 70.0707 25.8053 70.4813 25.712C70.9107 25.6 71.2373 25.404 71.4613 25.124C71.704 24.844 71.8627 24.452 71.9373 23.948C72.012 23.4253 72.0493 22.7253 72.0493 21.848V8.744H71.9093L64.3773 27.28H62.3053L54.5213 8.744H54.4093V21.652C54.4093 22.5853 54.4467 23.3227 54.5213 23.864C54.596 24.4053 54.7453 24.8253 54.9693 25.124C55.1933 25.4227 55.5107 25.6187 55.9213 25.712C56.3507 25.8053 56.9107 25.8613 57.6013 25.88V27H48.9773V25.88C49.668 25.8613 50.228 25.8053 50.6573 25.712C51.0867 25.6 51.4133 25.404 51.6373 25.124C51.88 24.844 52.0387 24.452 52.1133 23.948C52.188 23.4253 52.2253 22.7253 52.2253 21.848V10.592C52.2253 9.808 52.188 9.15467 52.1133 8.632C52.0387 8.10933 51.8987 7.69867 51.6933 7.4C51.488 7.08267 51.1893 6.868 50.7973 6.756C50.424 6.62533 49.92 6.56 49.2853 6.56V5.44H57.7693L64.2933 21.764H64.4053ZM92.8682 27H82.8722V25.88C83.5069 25.8613 84.0109 25.8053 84.3842 25.712C84.7762 25.6 85.0749 25.404 85.2802 25.124C85.4856 24.844 85.6256 24.452 85.7002 23.948C85.7749 23.4253 85.8122 22.7253 85.8122 21.848V10.592C85.8122 9.808 85.7749 9.164 85.7002 8.66C85.6442 8.13733 85.5229 7.72667 85.3362 7.428C85.1496 7.12933 84.8789 6.924 84.5242 6.812C84.1882 6.68133 83.7309 6.59733 83.1522 6.56V5.44H92.5882V6.56C92.0096 6.59733 91.5429 6.68133 91.1882 6.812C90.8522 6.924 90.5909 7.12933 90.4042 7.428C90.2176 7.72667 90.0869 8.13733 90.0122 8.66C89.9562 9.164 89.9282 9.808 89.9282 10.592V21.848C89.9282 22.7253 89.9562 23.4253 90.0122 23.948C90.0869 24.452 90.2269 24.844 90.4322 25.124C90.6562 25.404 90.9549 25.6 91.3282 25.712C91.7202 25.8053 92.2336 25.8613 92.8682 25.88V27ZM97.0601 19.86H98.1521C98.4135 21.6333 99.1228 23.0333 100.28 24.06C101.437 25.068 102.865 25.572 104.564 25.572C105.255 25.572 105.889 25.488 106.468 25.32C107.047 25.152 107.541 24.9187 107.952 24.62C108.363 24.3027 108.68 23.9387 108.904 23.528C109.128 23.0987 109.24 22.6227 109.24 22.1C109.24 21.652 109.165 21.2693 109.016 20.952C108.885 20.616 108.624 20.2987 108.232 20C107.84 19.6827 107.299 19.3653 106.608 19.048C105.936 18.7307 105.059 18.3667 103.976 17.956C101.792 17.116 100.177 16.1453 99.1321 15.044C98.0868 13.924 97.5641 12.608 97.5641 11.096C97.5641 10.2187 97.7321 9.416 98.0681 8.688C98.4041 7.96 98.8708 7.33467 99.4681 6.812C100.084 6.28933 100.812 5.888 101.652 5.608C102.511 5.30933 103.453 5.16 104.48 5.16C105.432 5.16 106.328 5.30933 107.168 5.608C108.008 5.90667 108.839 6.35467 109.66 6.952L110.164 5.552H110.836L111.144 11.6H110.052C109.604 10.0693 108.904 8.90267 107.952 8.1C107 7.27867 105.899 6.868 104.648 6.868C103.491 6.868 102.548 7.15733 101.82 7.736C101.111 8.296 100.756 9.024 100.756 9.92C100.756 10.312 100.821 10.6667 100.952 10.984C101.083 11.2827 101.325 11.572 101.68 11.852C102.035 12.132 102.52 12.4213 103.136 12.72C103.752 13 104.545 13.3173 105.516 13.672C106.823 14.176 107.933 14.6893 108.848 15.212C109.781 15.716 110.537 16.2667 111.116 16.864C111.713 17.4427 112.152 18.0587 112.432 18.712C112.712 19.3653 112.852 20.084 112.852 20.868C112.852 21.82 112.647 22.688 112.236 23.472C111.825 24.256 111.247 24.928 110.5 25.488C109.772 26.048 108.895 26.4867 107.868 26.804C106.86 27.1213 105.74 27.28 104.508 27.28C103.388 27.28 102.38 27.1307 101.484 26.832C100.588 26.5147 99.6641 26.0107 98.7121 25.32L98.1521 27H97.4801L97.0601 19.86ZM117.307 19.86H118.399C118.66 21.6333 119.369 23.0333 120.527 24.06C121.684 25.068 123.112 25.572 124.811 25.572C125.501 25.572 126.136 25.488 126.715 25.32C127.293 25.152 127.788 24.9187 128.199 24.62C128.609 24.3027 128.927 23.9387 129.151 23.528C129.375 23.0987 129.487 22.6227 129.487 22.1C129.487 21.652 129.412 21.2693 129.263 20.952C129.132 20.616 128.871 20.2987 128.479 20C128.087 19.6827 127.545 19.3653 126.855 19.048C126.183 18.7307 125.305 18.3667 124.223 17.956C122.039 17.116 120.424 16.1453 119.379 15.044C118.333 13.924 117.811 12.608 117.811 11.096C117.811 10.2187 117.979 9.416 118.315 8.688C118.651 7.96 119.117 7.33467 119.715 6.812C120.331 6.28933 121.059 5.888 121.899 5.608C122.757 5.30933 123.7 5.16 124.727 5.16C125.679 5.16 126.575 5.30933 127.415 5.608C128.255 5.90667 129.085 6.35467 129.907 6.952L130.411 5.552H131.083L131.391 11.6H130.299C129.851 10.0693 129.151 8.90267 128.199 8.1C127.247 7.27867 126.145 6.868 124.895 6.868C123.737 6.868 122.795 7.15733 122.067 7.736C121.357 8.296 121.003 9.024 121.003 9.92C121.003 10.312 121.068 10.6667 121.199 10.984C121.329 11.2827 121.572 11.572 121.927 11.852C122.281 12.132 122.767 12.4213 123.383 12.72C123.999 13 124.792 13.3173 125.763 13.672C127.069 14.176 128.18 14.6893 129.095 15.212C130.028 15.716 130.784 16.2667 131.363 16.864C131.96 17.4427 132.399 18.0587 132.679 18.712C132.959 19.3653 133.099 20.084 133.099 20.868C133.099 21.82 132.893 22.688 132.483 23.472C132.072 24.256 131.493 24.928 130.747 25.488C130.019 26.048 129.141 26.4867 128.115 26.804C127.107 27.1213 125.987 27.28 124.755 27.28C123.635 27.28 122.627 27.1307 121.731 26.832C120.835 26.5147 119.911 26.0107 118.959 25.32L118.399 27H117.727L117.307 19.86ZM149.577 20.476H141.653C140.775 22.4547 140.337 23.8267 140.337 24.592C140.337 25.152 140.542 25.5067 140.953 25.656C141.382 25.8053 142.017 25.88 142.857 25.88V27H135.185V25.88C135.633 25.824 136.015 25.7493 136.333 25.656C136.669 25.5627 136.958 25.432 137.201 25.264C137.462 25.096 137.686 24.8813 137.873 24.62C138.059 24.34 138.237 24.004 138.405 23.612L145.769 5.16H147.841L154.533 21.512C154.925 22.464 155.251 23.2107 155.513 23.752C155.793 24.2933 156.082 24.7133 156.381 25.012C156.698 25.292 157.053 25.488 157.445 25.6C157.855 25.712 158.378 25.796 159.013 25.852V27H148.429V25.852C149.325 25.8147 149.969 25.7213 150.361 25.572C150.753 25.4227 150.949 25.124 150.949 24.676C150.949 24.4147 150.883 24.0787 150.753 23.668C150.622 23.2573 150.445 22.7533 150.221 22.156L149.577 20.476ZM142.297 18.796H148.961L145.741 10.312H145.629L142.297 18.796ZM180.141 27H160.849V25.88C161.465 25.8613 161.969 25.8053 162.361 25.712C162.753 25.6187 163.052 25.46 163.257 25.236C163.463 25.012 163.603 24.6947 163.677 24.284C163.752 23.8733 163.789 23.3413 163.789 22.688V9.752C163.789 9.09867 163.752 8.576 163.677 8.184C163.621 7.77333 163.5 7.456 163.313 7.232C163.127 6.98933 162.856 6.83067 162.501 6.756C162.165 6.66267 161.717 6.59733 161.157 6.56V5.44H170.817V6.56C170.183 6.57867 169.669 6.63467 169.277 6.728C168.904 6.82133 168.615 6.98933 168.409 7.232C168.204 7.47467 168.064 7.81067 167.989 8.24C167.933 8.66933 167.905 9.23867 167.905 9.948V21.68C167.905 22.464 167.98 23.108 168.129 23.612C168.297 24.0973 168.577 24.48 168.969 24.76C169.361 25.0213 169.884 25.208 170.537 25.32C171.191 25.4133 172.003 25.46 172.973 25.46C174.056 25.46 174.961 25.3947 175.689 25.264C176.417 25.1333 177.024 24.8907 177.509 24.536C178.013 24.1627 178.415 23.668 178.713 23.052C179.012 22.436 179.264 21.6333 179.469 20.644H180.589L180.141 27Z" fill="white"/>
<path d="M31.5469 61.2793C31.6953 61.4902 31.8867 61.6543 32.1211 61.7715C32.3555 61.8848 32.6113 61.9414 32.8887 61.9414C33.2285 61.9414 33.5488 61.8594 33.8496 61.6953C34.1504 61.5312 34.4121 61.3086 34.6348 61.0273C34.8613 60.7461 35.041 60.4199 35.1738 60.0488C35.3066 59.6777 35.373 59.2832 35.373 58.8652C35.373 58.3496 35.2656 57.9375 35.0508 57.6289C34.8398 57.3203 34.5273 57.1113 34.1133 57.002C34.1016 57.0059 34.0742 57.0078 34.0312 57.0078C33.9844 57.0078 33.9453 57.002 33.9141 56.9902C33.8867 56.9746 33.873 56.9551 33.873 56.9316C33.873 56.9121 33.8887 56.8945 33.9199 56.8789C33.9512 56.8594 33.9922 56.8496 34.043 56.8496C34.0977 56.8496 34.1504 56.8652 34.2012 56.8965C34.5176 56.8262 34.8105 56.7051 35.0801 56.5332C35.3535 56.3574 35.5898 56.1484 35.7891 55.9062C35.9922 55.6602 36.1504 55.3906 36.2637 55.0977C36.3809 54.8047 36.4395 54.502 36.4395 54.1895C36.4395 53.8379 36.3613 53.5566 36.2051 53.3457C36.0488 53.1309 35.8047 52.9785 35.4727 52.8887C35.3672 52.9316 35.2598 52.9883 35.1504 53.0586C35.041 53.125 34.9336 53.2012 34.8281 53.2871C34.7266 53.373 34.6309 53.4648 34.541 53.5625C34.4512 53.6562 34.373 53.75 34.3066 53.8438C34.2715 53.8945 34.2363 53.9531 34.2012 54.0195C34.166 54.082 34.125 54.166 34.0781 54.2715C34.0352 54.377 33.9805 54.5117 33.9141 54.6758C33.8516 54.8359 33.7734 55.0391 33.6797 55.2852C33.5898 55.5273 33.4824 55.8184 33.3574 56.1582C33.2324 56.498 33.084 56.9004 32.9121 57.3652C32.6074 58.1973 32.293 58.9199 31.9688 59.5332C31.6445 60.1426 31.3066 60.6484 30.9551 61.0508C30.6035 61.4492 30.2344 61.7461 29.8477 61.9414C29.4609 62.1328 29.0547 62.2285 28.6289 62.2285C27.543 62.2285 27 61.6035 27 60.3535C27 60.0762 27.0254 59.7852 27.0762 59.4805C27.127 59.1758 27.2012 58.8652 27.2988 58.5488C27.3965 58.2324 27.5156 57.916 27.6562 57.5996C27.7969 57.2793 27.957 56.9668 28.1367 56.6621C28.5039 56.0371 28.9316 55.4727 29.4199 54.9688C29.9082 54.4609 30.4316 54.0312 30.9902 53.6797C31.5527 53.3242 32.1406 53.0508 32.7539 52.8594C33.3711 52.668 33.9902 52.5723 34.6113 52.5723C35.0176 52.5723 35.3809 52.6133 35.7012 52.6953C36.0254 52.7773 36.2988 52.8965 36.5215 53.0527C36.7441 53.209 36.9141 53.4004 37.0312 53.627C37.1484 53.8535 37.207 54.1094 37.207 54.3945C37.207 54.7305 37.1289 55.0508 36.9727 55.3555C36.8203 55.6602 36.6094 55.9297 36.3398 56.1641C36.0742 56.3945 35.7637 56.582 35.4082 56.7266C35.0527 56.8672 34.6758 56.9434 34.2773 56.9551C34.9453 57.1035 35.4414 57.3574 35.7656 57.7168C36.0938 58.0723 36.2578 58.5273 36.2578 59.082C36.2578 59.3633 36.2168 59.6367 36.1348 59.9023C36.0527 60.168 35.9375 60.418 35.7891 60.6523C35.6445 60.8828 35.4688 61.0957 35.2617 61.291C35.0547 61.4824 34.8262 61.6484 34.5762 61.7891C34.3301 61.9297 34.0664 62.0371 33.7852 62.1113C33.5039 62.1895 33.2129 62.2285 32.9121 62.2285C32.7402 62.2285 32.584 62.2148 32.4434 62.1875C32.3027 62.1602 32.1699 62.1152 32.0449 62.0527C31.9199 61.9941 31.8008 61.918 31.6875 61.8242C31.5781 61.7266 31.4688 61.6094 31.3594 61.4727L31.5469 61.2793ZM33.0645 54.7988C33.2363 54.4863 33.4102 54.2207 33.5859 54.002C33.7656 53.7832 33.9453 53.5996 34.125 53.4512C34.3086 53.2988 34.4922 53.1758 34.6758 53.082C34.8633 52.9844 35.0527 52.9043 35.2441 52.8418C35.1543 52.8262 35.0566 52.8145 34.9512 52.8066C34.8457 52.7988 34.7363 52.7949 34.623 52.7949C34.0371 52.7949 33.4492 52.8906 32.8594 53.082C32.2734 53.2695 31.709 53.5371 31.166 53.8848C30.627 54.2285 30.1211 54.6445 29.6484 55.1328C29.1797 55.6172 28.7695 56.1543 28.418 56.7441C28.0625 57.3418 27.791 57.9512 27.6035 58.5723C27.4199 59.1895 27.3281 59.7871 27.3281 60.3652C27.3281 60.6465 27.3516 60.8867 27.3984 61.0859C27.4492 61.2852 27.5254 61.4492 27.627 61.5781C27.7324 61.7031 27.8652 61.7949 28.0254 61.8535C28.1895 61.9121 28.3867 61.9414 28.6172 61.9414C28.8203 61.9414 29.0059 61.918 29.1738 61.8711C29.3457 61.8242 29.5078 61.7441 29.6602 61.6309C29.8164 61.5176 29.9688 61.3691 30.1172 61.1855C30.2656 61.002 30.416 60.7734 30.5684 60.5C30.7207 60.2266 30.8809 59.9043 31.0488 59.5332C31.2168 59.1621 31.4004 58.7344 31.5996 58.25C31.752 57.8789 31.8926 57.5293 32.0215 57.2012C32.1504 56.873 32.2734 56.5664 32.3906 56.2812C32.5078 55.9922 32.6211 55.7246 32.7305 55.4785C32.8398 55.2324 32.9512 55.0059 33.0645 54.7988ZM43.3034 55.4727C43.3034 55.4102 43.2623 55.3477 43.1803 55.2852C43.1022 55.2188 42.987 55.1855 42.8346 55.1855C42.6784 55.1855 42.5084 55.2344 42.3248 55.332C42.1412 55.4258 41.9323 55.5938 41.6979 55.8359C41.4635 56.0781 41.1998 56.4082 40.9069 56.8262C40.6178 57.2441 40.2897 57.7773 39.9225 58.4258L39.6295 58.9414L38.5221 62H37.6491L40.1803 55.0566H41.0475L40.0221 57.8691C40.3424 57.3184 40.6354 56.8574 40.901 56.4863C41.1666 56.1113 41.4127 55.8105 41.6393 55.584C41.8659 55.3535 42.0787 55.1895 42.278 55.0918C42.4772 54.9941 42.6725 54.9453 42.8639 54.9453C43.1217 54.9453 43.3229 55.0215 43.4674 55.1738C43.6159 55.3262 43.6901 55.5254 43.6901 55.7715C43.6901 55.873 43.6764 55.9707 43.6491 56.0645C43.6256 56.1543 43.5885 56.2324 43.5377 56.2988C43.4909 56.3652 43.4323 56.418 43.362 56.457C43.2916 56.4961 43.2135 56.5156 43.1276 56.5156C43.0651 56.5156 43.0026 56.5059 42.9401 56.4863C42.8815 56.4668 42.8287 56.4375 42.7819 56.3984C42.735 56.3555 42.6959 56.3047 42.6647 56.2461C42.6373 56.1875 42.6237 56.1191 42.6237 56.041C42.6237 55.9785 42.6334 55.916 42.653 55.8535C42.6764 55.7871 42.7077 55.7305 42.7467 55.6836C42.7858 55.6328 42.8327 55.5918 42.8873 55.5605C42.942 55.5293 43.0026 55.5137 43.069 55.5137C43.112 55.5137 43.153 55.5176 43.192 55.5254C43.1998 55.5332 43.2096 55.541 43.2213 55.5488C43.237 55.5527 43.2487 55.5547 43.2565 55.5547C43.2877 55.5547 43.3034 55.5273 43.3034 55.4727ZM44.7239 58.5781C44.8645 58.1562 45.0325 57.7734 45.2278 57.4297C45.4231 57.082 45.6341 56.7734 45.8606 56.5039C46.0911 56.2344 46.3313 56.002 46.5813 55.8066C46.8352 55.6113 47.0872 55.4512 47.3372 55.3262C47.5911 55.1973 47.8391 55.1016 48.0813 55.0391C48.3274 54.9766 48.5579 54.9453 48.7727 54.9453C48.9954 54.9453 49.1809 54.9805 49.3294 55.0508C49.4778 55.1172 49.597 55.2129 49.6868 55.3379C49.7805 55.459 49.847 55.6074 49.886 55.7832C49.9251 55.9551 49.9446 56.1465 49.9446 56.3574L50.4192 55.0566H51.2864L49.7923 59.1582C49.7376 59.3105 49.6829 59.4668 49.6282 59.627C49.5735 59.7832 49.5247 59.9395 49.4817 60.0957C49.4427 60.248 49.4095 60.3965 49.3821 60.541C49.3587 60.6816 49.347 60.8125 49.347 60.9336C49.347 61.2031 49.4173 61.418 49.5579 61.5781C49.7024 61.7383 49.9251 61.8184 50.2259 61.8184C50.4876 61.8184 50.7415 61.7637 50.9876 61.6543C51.2337 61.541 51.4759 61.3711 51.7141 61.1445C51.9563 60.9141 52.1985 60.627 52.4407 60.2832C52.6829 59.9355 52.9329 59.5293 53.1907 59.0645L53.4895 58.5254L53.6477 58.6367L53.343 59.1758C53.0579 59.6836 52.7845 60.123 52.5227 60.4941C52.2649 60.8613 52.0071 61.166 51.7493 61.4082C51.4915 61.6465 51.2278 61.8242 50.9583 61.9414C50.6887 62.0547 50.4016 62.1113 50.097 62.1113C49.8587 62.1113 49.6477 62.0742 49.4641 62C49.2845 61.9297 49.1321 61.8281 49.0071 61.6953C48.886 61.5625 48.7942 61.4023 48.7317 61.2148C48.6692 61.0273 48.638 60.8184 48.638 60.5879C48.638 60.4355 48.6516 60.2715 48.679 60.0957C48.7063 59.916 48.7473 59.7305 48.802 59.5391C48.2903 60.3984 47.7845 61.043 47.2845 61.4727C46.7845 61.8984 46.2766 62.1113 45.761 62.1113C45.5188 62.1113 45.3118 62.0684 45.1399 61.9824C44.972 61.8926 44.8333 61.7695 44.7239 61.6133C44.6145 61.4531 44.5345 61.2676 44.4837 61.0566C44.4329 60.8418 44.4075 60.6074 44.4075 60.3535C44.4075 60.0801 44.4348 59.793 44.4895 59.4922C44.5442 59.1875 44.6223 58.8828 44.7239 58.5781ZM45.972 61.8184C46.1829 61.8184 46.3977 61.7637 46.6165 61.6543C46.8352 61.541 47.052 61.3887 47.2669 61.1973C47.4856 61.002 47.6966 60.7754 47.8997 60.5176C48.1028 60.2559 48.2942 59.9785 48.4739 59.6855C48.6575 59.3887 48.8255 59.084 48.9778 58.7715C49.1302 58.459 49.261 58.1523 49.3704 57.8516C49.4837 57.5469 49.5696 57.2578 49.6282 56.9844C49.6907 56.707 49.722 56.459 49.722 56.2402C49.722 56.041 49.6966 55.875 49.6458 55.7422C49.5989 55.6055 49.5345 55.4961 49.4524 55.4141C49.3743 55.3281 49.2825 55.2676 49.177 55.2324C49.0755 55.1973 48.97 55.1797 48.8606 55.1797C48.6419 55.1797 48.3977 55.248 48.1282 55.3848C47.8626 55.5176 47.5911 55.7227 47.3137 56C47.0364 56.2734 46.763 56.6211 46.4934 57.043C46.2278 57.4609 45.9837 57.9531 45.761 58.5195C45.5774 58.9922 45.4387 59.4297 45.345 59.832C45.2552 60.2344 45.2102 60.5703 45.2102 60.8398C45.2102 61.1445 45.2708 61.3848 45.3919 61.5605C45.5169 61.7324 45.7102 61.8184 45.972 61.8184ZM55.1093 55.0566H55.9765L55.0566 57.5762C55.3183 57.1309 55.5702 56.7441 55.8124 56.416C56.0546 56.084 56.2948 55.8105 56.5331 55.5957C56.7753 55.377 57.0195 55.2148 57.2655 55.1094C57.5116 55 57.7714 54.9453 58.0448 54.9453C58.2909 54.9453 58.5058 54.9863 58.6894 55.0684C58.873 55.1465 59.0273 55.2559 59.1523 55.3965C59.2773 55.5332 59.371 55.6934 59.4335 55.877C59.496 56.0605 59.5273 56.2539 59.5273 56.457C59.5273 56.6797 59.4941 56.9219 59.4277 57.1836C59.3652 57.4453 59.2851 57.7148 59.1874 57.9922C59.0898 58.2695 58.9843 58.5508 58.871 58.8359C58.7577 59.1172 58.6523 59.3887 58.5546 59.6504C58.457 59.9121 58.3749 60.1582 58.3085 60.3887C58.246 60.6152 58.2148 60.8145 58.2148 60.9863C58.2148 61.2246 58.287 61.4238 58.4316 61.584C58.58 61.7402 58.8105 61.8184 59.123 61.8184C59.373 61.8184 59.6171 61.7617 59.8554 61.6484C60.0976 61.5312 60.3378 61.3594 60.5761 61.1328C60.8183 60.9023 61.0605 60.6152 61.3027 60.2715C61.5487 59.9238 61.8007 59.5215 62.0585 59.0645L62.3632 58.5254L62.5214 58.6367L62.2167 59.1758C61.9355 59.668 61.6659 60.0996 61.4081 60.4707C61.1503 60.8379 60.8925 61.1426 60.6347 61.3848C60.3769 61.627 60.1132 61.8086 59.8437 61.9297C59.578 62.0508 59.2948 62.1113 58.9941 62.1113C58.748 62.1113 58.5312 62.0742 58.3437 62C58.1601 61.9258 58.0058 61.8242 57.8808 61.6953C57.7558 61.5664 57.662 61.418 57.5995 61.25C57.537 61.0781 57.5058 60.8965 57.5058 60.7051C57.5058 60.502 57.537 60.2754 57.5995 60.0254C57.6659 59.7715 57.748 59.5078 57.8456 59.2344C57.9433 58.957 58.0487 58.6777 58.162 58.3965C58.2753 58.1113 58.3808 57.8359 58.4784 57.5703C58.5761 57.3008 58.6562 57.0469 58.7187 56.8086C58.7851 56.5664 58.8183 56.3516 58.8183 56.1641C58.8183 56.0312 58.8007 55.9082 58.7655 55.7949C58.7304 55.6816 58.6737 55.584 58.5956 55.502C58.5214 55.4199 58.4257 55.3555 58.3085 55.3086C58.1952 55.2617 58.0585 55.2383 57.8984 55.2383C57.6523 55.2383 57.412 55.2988 57.1777 55.4199C56.9433 55.5371 56.707 55.7148 56.4687 55.9531C56.2343 56.1914 55.9941 56.4902 55.748 56.8496C55.5058 57.2051 55.2499 57.6211 54.9804 58.0977L54.6757 58.6367L53.4452 62H52.578L55.1093 55.0566ZM62.7056 58.5781C62.8462 58.1562 63.0142 57.7734 63.2095 57.4297C63.4048 57.082 63.6158 56.7734 63.8423 56.5039C64.0728 56.2344 64.313 56.002 64.563 55.8066C64.817 55.6113 65.0689 55.4512 65.3189 55.3262C65.5728 55.1973 65.8209 55.1016 66.063 55.0391C66.3091 54.9766 66.5396 54.9453 66.7545 54.9453C66.9771 54.9453 67.1627 54.9805 67.3111 55.0508C67.4595 55.1172 67.5787 55.2129 67.6685 55.3379C67.7623 55.459 67.8287 55.6074 67.8677 55.7832C67.9068 55.9551 67.9263 56.1465 67.9263 56.3574L69.5201 51.9688H70.3873L67.774 59.1582C67.7193 59.3105 67.6646 59.4668 67.6099 59.627C67.5552 59.7871 67.5064 59.9434 67.4634 60.0957C67.4244 60.248 67.3912 60.3965 67.3638 60.541C67.3404 60.6816 67.3287 60.8125 67.3287 60.9336C67.3287 61.2031 67.399 61.418 67.5396 61.5781C67.6841 61.7383 67.9068 61.8184 68.2076 61.8184C68.4693 61.8184 68.7232 61.7637 68.9693 61.6543C69.2154 61.541 69.4576 61.3711 69.6959 61.1445C69.938 60.9141 70.1802 60.627 70.4224 60.2832C70.6646 59.9355 70.9146 59.5293 71.1724 59.0645L71.4712 58.5254L71.6295 58.6367L71.3248 59.1758C71.0396 59.6797 70.7662 60.1172 70.5045 60.4883C70.2466 60.8555 69.9888 61.1602 69.731 61.4023C69.4732 61.6406 69.2095 61.8184 68.94 61.9355C68.6705 62.0527 68.3834 62.1113 68.0787 62.1113C67.8404 62.1113 67.6295 62.0742 67.4459 62C67.2662 61.9297 67.1138 61.8281 66.9888 61.6953C66.8677 61.5625 66.7759 61.4023 66.7134 61.2148C66.6509 61.0273 66.6197 60.8184 66.6197 60.5879C66.6197 60.4355 66.6334 60.2715 66.6607 60.0957C66.688 59.916 66.7291 59.7305 66.7837 59.5391C66.272 60.3984 65.7662 61.043 65.2662 61.4727C64.7662 61.8984 64.2584 62.1113 63.7427 62.1113C63.5005 62.1113 63.2935 62.0684 63.1216 61.9824C62.9537 61.8926 62.815 61.7695 62.7056 61.6133C62.5962 61.4531 62.5162 61.2676 62.4654 61.0566C62.4146 60.8418 62.3892 60.6074 62.3892 60.3535C62.3892 60.0801 62.4166 59.793 62.4712 59.4922C62.5259 59.1875 62.6041 58.8828 62.7056 58.5781ZM63.9537 61.8184C64.1646 61.8184 64.3795 61.7637 64.5982 61.6543C64.817 61.541 65.0337 61.3887 65.2486 61.1973C65.4673 61.002 65.6783 60.7754 65.8814 60.5176C66.0845 60.2559 66.2759 59.9785 66.4556 59.6855C66.6392 59.3887 66.8072 59.084 66.9595 58.7715C67.1119 58.459 67.2427 58.1523 67.3521 57.8516C67.4654 57.5469 67.5513 57.2578 67.6099 56.9844C67.6724 56.707 67.7037 56.459 67.7037 56.2402C67.7037 56.041 67.6783 55.875 67.6275 55.7422C67.5806 55.6055 67.5162 55.4961 67.4341 55.4141C67.356 55.3281 67.2642 55.2676 67.1587 55.2324C67.0572 55.1973 66.9517 55.1797 66.8423 55.1797C66.6236 55.1797 66.3795 55.248 66.1099 55.3848C65.8443 55.5176 65.5728 55.7227 65.2955 56C65.0181 56.2734 64.7447 56.6211 64.4752 57.043C64.2095 57.4609 63.9654 57.9531 63.7427 58.5195C63.5591 58.9922 63.4205 59.4297 63.3267 59.832C63.2369 60.2344 63.192 60.5703 63.192 60.8398C63.192 61.1445 63.2525 61.3848 63.3736 61.5605C63.4986 61.7324 63.692 61.8184 63.9537 61.8184ZM73.8352 62.1113C73.1281 62.1113 72.5832 61.9277 72.2004 61.5605C71.8176 61.1895 71.6262 60.6387 71.6262 59.9082C71.6262 59.709 71.6418 59.498 71.673 59.2754C71.7004 59.0527 71.7453 58.8242 71.8078 58.5898C71.9484 58.0664 72.1457 57.582 72.3996 57.1367C72.6574 56.6914 72.9523 56.3066 73.2844 55.9824C73.6164 55.6582 73.9738 55.4043 74.3566 55.2207C74.7395 55.0371 75.1242 54.9453 75.5109 54.9453C75.9016 54.9453 76.2082 55.0371 76.4309 55.2207C76.6574 55.4043 76.7707 55.6621 76.7707 55.9941C76.7707 56.1816 76.7336 56.3652 76.6594 56.5449C76.5852 56.7246 76.4777 56.8945 76.3371 57.0547C76.1965 57.2148 76.0266 57.3652 75.8273 57.5059C75.632 57.6426 75.4113 57.7617 75.1652 57.8633C74.8605 57.9922 74.5246 58.0898 74.1574 58.1562C73.7902 58.2188 73.3723 58.25 72.9035 58.25C72.7902 58.5664 72.7004 58.8965 72.634 59.2402C72.5715 59.5801 72.5402 59.9277 72.5402 60.2832C72.5402 60.8262 72.6535 61.2188 72.8801 61.4609C73.1105 61.6992 73.4719 61.8184 73.9641 61.8184C74.3742 61.8184 74.7648 61.7402 75.1359 61.584C75.507 61.4238 75.8508 61.2148 76.1672 60.957C76.4836 60.6992 76.7727 60.4062 77.0344 60.0781C77.2961 59.7461 77.5246 59.4082 77.7199 59.0645L78.0246 58.5254L78.1828 58.6367L77.8781 59.1758C77.6359 59.6016 77.3703 59.9941 77.0812 60.3535C76.7961 60.7129 76.4836 61.0234 76.1437 61.2852C75.8078 61.543 75.4465 61.7461 75.0598 61.8945C74.677 62.0391 74.2687 62.1113 73.8352 62.1113ZM75.675 55.1797C75.4289 55.1797 75.177 55.252 74.9191 55.3965C74.6652 55.541 74.4191 55.7422 74.1809 56C73.9426 56.2539 73.7199 56.5547 73.5129 56.9023C73.3059 57.25 73.1262 57.6289 72.9738 58.0391C73.4035 58.0312 73.7707 57.9941 74.0754 57.9277C74.3801 57.8574 74.6457 57.7695 74.8723 57.6641C75.052 57.582 75.2258 57.4766 75.3937 57.3477C75.5656 57.2148 75.716 57.0645 75.8449 56.8965C75.9777 56.7285 76.0832 56.5469 76.1613 56.3516C76.2434 56.1562 76.2844 55.9531 76.2844 55.7422C76.2844 55.6367 76.2687 55.5488 76.2375 55.4785C76.2062 55.4082 76.1633 55.3516 76.1086 55.3086C76.0539 55.2617 75.9895 55.2285 75.9152 55.209C75.841 55.1895 75.7609 55.1797 75.675 55.1797ZM78.367 58.5781C78.5077 58.1562 78.6756 57.7734 78.8709 57.4297C79.0662 57.082 79.2772 56.7734 79.5037 56.5039C79.7342 56.2344 79.9745 56.002 80.2245 55.8066C80.4784 55.6113 80.7303 55.4512 80.9803 55.3262C81.2342 55.1973 81.4823 55.1016 81.7245 55.0391C81.9705 54.9766 82.201 54.9453 82.4159 54.9453C82.6385 54.9453 82.8241 54.9805 82.9725 55.0508C83.1209 55.1172 83.2401 55.2129 83.3299 55.3379C83.4237 55.459 83.4901 55.6074 83.5291 55.7832C83.5682 55.9551 83.5877 56.1465 83.5877 56.3574L85.1815 51.9688H86.0487L83.4354 59.1582C83.3807 59.3105 83.326 59.4668 83.2713 59.627C83.2166 59.7871 83.1678 59.9434 83.1248 60.0957C83.0858 60.248 83.0526 60.3965 83.0252 60.541C83.0018 60.6816 82.9901 60.8125 82.9901 60.9336C82.9901 61.2031 83.0604 61.418 83.201 61.5781C83.3455 61.7383 83.5682 61.8184 83.869 61.8184C84.1307 61.8184 84.3846 61.7637 84.6307 61.6543C84.8768 61.541 85.119 61.3711 85.3573 61.1445C85.5995 60.9141 85.8416 60.627 86.0838 60.2832C86.326 59.9355 86.576 59.5293 86.8338 59.0645L87.1327 58.5254L87.2909 58.6367L86.9862 59.1758C86.701 59.6797 86.4276 60.1172 86.1659 60.4883C85.908 60.8555 85.6502 61.1602 85.3924 61.4023C85.1346 61.6406 84.8709 61.8184 84.6014 61.9355C84.3319 62.0527 84.0448 62.1113 83.7401 62.1113C83.5018 62.1113 83.2909 62.0742 83.1073 62C82.9276 61.9297 82.7752 61.8281 82.6502 61.6953C82.5291 61.5625 82.4373 61.4023 82.3748 61.2148C82.3123 61.0273 82.2811 60.8184 82.2811 60.5879C82.2811 60.4355 82.2948 60.2715 82.3221 60.0957C82.3495 59.916 82.3905 59.7305 82.4452 59.5391C81.9334 60.3984 81.4276 61.043 80.9276 61.4727C80.4276 61.8984 79.9198 62.1113 79.4041 62.1113C79.162 62.1113 78.9549 62.0684 78.783 61.9824C78.6151 61.8926 78.4764 61.7695 78.367 61.6133C78.2577 61.4531 78.1776 61.2676 78.1268 61.0566C78.076 60.8418 78.0506 60.6074 78.0506 60.3535C78.0506 60.0801 78.078 59.793 78.1327 59.4922C78.1873 59.1875 78.2655 58.8828 78.367 58.5781ZM79.6151 61.8184C79.826 61.8184 80.0409 61.7637 80.2596 61.6543C80.4784 61.541 80.6952 61.3887 80.91 61.1973C81.1287 61.002 81.3397 60.7754 81.5428 60.5176C81.7459 60.2559 81.9373 59.9785 82.117 59.6855C82.3006 59.3887 82.4686 59.084 82.6209 58.7715C82.7733 58.459 82.9041 58.1523 83.0135 57.8516C83.1268 57.5469 83.2127 57.2578 83.2713 56.9844C83.3338 56.707 83.3651 56.459 83.3651 56.2402C83.3651 56.041 83.3397 55.875 83.2889 55.7422C83.242 55.6055 83.1776 55.4961 83.0955 55.4141C83.0174 55.3281 82.9256 55.2676 82.8202 55.2324C82.7186 55.1973 82.6131 55.1797 82.5037 55.1797C82.285 55.1797 82.0409 55.248 81.7713 55.3848C81.5057 55.5176 81.2342 55.7227 80.9569 56C80.6795 56.2734 80.4061 56.6211 80.1366 57.043C79.8709 57.4609 79.6268 57.9531 79.4041 58.5195C79.2205 58.9922 79.0819 59.4297 78.9881 59.832C78.8983 60.2344 78.8534 60.5703 78.8534 60.8398C78.8534 61.1445 78.9139 61.3848 79.035 61.5605C79.16 61.7324 79.3534 61.8184 79.6151 61.8184ZM94.9425 62.2285C94.5089 62.2285 94.1222 62.1602 93.7823 62.0234C93.4425 61.8906 93.1554 61.6973 92.921 61.4434C92.6905 61.1855 92.5128 60.8711 92.3878 60.5C92.2667 60.125 92.2062 59.6992 92.2062 59.2227C92.2062 58.9609 92.2237 58.6836 92.2589 58.3906C92.298 58.0977 92.3566 57.8008 92.4347 57.5C92.5558 57.0234 92.714 56.5723 92.9093 56.1465C93.1046 55.7168 93.3292 55.3203 93.5831 54.957C93.8409 54.5938 94.1222 54.2656 94.4269 53.9727C94.7355 53.6758 95.0597 53.4238 95.3995 53.2168C95.7394 53.0098 96.0929 52.8516 96.4601 52.7422C96.8273 52.6289 97.2003 52.5723 97.5792 52.5723C97.7589 52.5723 97.9405 52.5938 98.1241 52.6367C98.3077 52.6797 98.4718 52.752 98.6163 52.8535C98.7648 52.9512 98.8839 53.084 98.9737 53.252C99.0675 53.416 99.1144 53.6211 99.1144 53.8672C99.1144 54.0859 99.0812 54.2891 99.0148 54.4766C98.9523 54.6602 98.8624 54.8301 98.7452 54.9863C98.632 55.1387 98.4991 55.2793 98.3468 55.4082C98.1945 55.5371 98.0304 55.6523 97.8546 55.7539L97.7491 55.6074C98.0655 55.3535 98.298 55.0742 98.4464 54.7695C98.5987 54.4609 98.6749 54.1387 98.6749 53.8027C98.6749 53.4512 98.5929 53.1953 98.4288 53.0352C98.2687 52.875 98.0323 52.7949 97.7198 52.7949C97.3214 52.7949 96.9152 52.9141 96.5011 53.1523C96.0909 53.3867 95.6964 53.7109 95.3175 54.125C94.9386 54.5391 94.5909 55.0273 94.2745 55.5898C93.9581 56.1484 93.6964 56.752 93.4894 57.4004C93.3566 57.8184 93.255 58.2305 93.1847 58.6367C93.1144 59.0391 93.0792 59.416 93.0792 59.7676C93.0792 61.2168 93.7296 61.9414 95.0304 61.9414C95.7726 61.9414 96.4562 61.707 97.0812 61.2383C97.7062 60.7656 98.296 60.041 98.8507 59.0645L99.1554 58.5254L99.3136 58.6367L99.0089 59.1758C98.712 59.6992 98.4093 60.1523 98.1007 60.5352C97.7921 60.918 97.4718 61.2344 97.1398 61.4844C96.8077 61.7344 96.4601 61.9199 96.0968 62.041C95.7335 62.166 95.3487 62.2285 94.9425 62.2285ZM99.4744 58.5957C99.6111 58.0723 99.8103 57.5879 100.072 57.1426C100.338 56.6973 100.64 56.3125 100.98 55.9883C101.324 55.6602 101.695 55.4043 102.094 55.2207C102.496 55.0371 102.9 54.9453 103.306 54.9453C103.635 54.9453 103.91 55.002 104.133 55.1152C104.359 55.2246 104.541 55.373 104.677 55.5605C104.814 55.748 104.912 55.9648 104.97 56.2109C105.029 56.457 105.058 56.7148 105.058 56.9844C105.058 57.2773 105.029 57.5703 104.97 57.8633C104.916 58.1562 104.844 58.4355 104.754 58.7012C104.699 58.8691 104.636 59.0312 104.566 59.1875C104.496 59.3438 104.422 59.4961 104.344 59.6445C104.398 59.7734 104.478 59.8789 104.584 59.9609C104.689 60.0391 104.836 60.0781 105.023 60.0781C105.133 60.0781 105.25 60.0605 105.375 60.0254C105.5 59.9902 105.625 59.9336 105.75 59.8555C105.879 59.7734 106.004 59.668 106.125 59.5391C106.25 59.4102 106.365 59.252 106.47 59.0645L106.775 58.5254L106.933 58.6367L106.629 59.1758C106.48 59.4375 106.328 59.6445 106.172 59.7969C106.019 59.9453 105.871 60.0586 105.726 60.1367C105.582 60.2148 105.445 60.2656 105.316 60.2891C105.191 60.3086 105.084 60.3184 104.994 60.3184C104.81 60.3184 104.646 60.2949 104.502 60.248C104.357 60.1973 104.228 60.1309 104.115 60.0488C103.92 60.3613 103.703 60.6445 103.465 60.8984C103.23 61.1523 102.982 61.3691 102.72 61.5488C102.459 61.7285 102.187 61.8672 101.906 61.9648C101.629 62.0625 101.351 62.1113 101.074 62.1113C100.797 62.1113 100.547 62.0625 100.324 61.9648C100.105 61.8633 99.9197 61.7188 99.7673 61.5312C99.615 61.3438 99.4978 61.1152 99.4158 60.8457C99.3337 60.5723 99.2927 60.2656 99.2927 59.9258C99.2927 59.7109 99.3084 59.4922 99.3396 59.2695C99.3709 59.043 99.4158 58.8184 99.4744 58.5957ZM101.162 61.8184C101.388 61.8184 101.617 61.7676 101.847 61.666C102.082 61.5605 102.31 61.4121 102.533 61.2207C102.76 61.0293 102.976 60.7988 103.183 60.5293C103.394 60.2559 103.588 59.9531 103.763 59.6211C103.717 59.5312 103.681 59.4395 103.658 59.3457C103.638 59.248 103.629 59.1484 103.629 59.0469C103.629 58.9336 103.644 58.8223 103.676 58.7129C103.707 58.5996 103.754 58.4961 103.816 58.4023C103.883 58.3047 103.965 58.2168 104.062 58.1387C104.164 58.0605 104.281 57.998 104.414 57.9512C104.472 57.7324 104.521 57.5059 104.56 57.2715C104.599 57.0332 104.619 56.7988 104.619 56.5684C104.619 56.3809 104.601 56.2031 104.566 56.0352C104.531 55.8633 104.47 55.7148 104.385 55.5898C104.302 55.4648 104.189 55.3652 104.045 55.291C103.904 55.2168 103.728 55.1797 103.517 55.1797C103.213 55.1797 102.91 55.2617 102.609 55.4258C102.312 55.5859 102.029 55.8145 101.76 56.1113C101.494 56.4043 101.252 56.7559 101.033 57.166C100.814 57.5762 100.633 58.0293 100.488 58.5254C100.39 58.8574 100.314 59.1914 100.26 59.5273C100.209 59.8594 100.183 60.1621 100.183 60.4355C100.183 61.3574 100.51 61.8184 101.162 61.8184ZM109.52 51.9688H110.393L107.774 59.1582C107.719 59.3105 107.664 59.4668 107.61 59.627C107.555 59.7832 107.506 59.9395 107.463 60.0957C107.424 60.248 107.391 60.3965 107.364 60.541C107.34 60.6816 107.329 60.8125 107.329 60.9336C107.329 61.2031 107.399 61.418 107.539 61.5781C107.684 61.7383 107.907 61.8184 108.207 61.8184C108.469 61.8184 108.721 61.7617 108.963 61.6484C109.209 61.5352 109.452 61.3652 109.69 61.1387C109.932 60.9082 110.174 60.6211 110.416 60.2773C110.659 59.9297 110.911 59.5254 111.172 59.0645L111.477 58.5254L111.635 58.6367L111.33 59.1758C111.045 59.6797 110.772 60.1172 110.51 60.4883C110.252 60.8555 109.993 61.1602 109.731 61.4023C109.473 61.6406 109.209 61.8184 108.94 61.9355C108.67 62.0527 108.383 62.1113 108.079 62.1113C107.84 62.1113 107.629 62.0742 107.446 62C107.266 61.9297 107.116 61.8281 106.995 61.6953C106.87 61.5625 106.776 61.4023 106.713 61.2148C106.651 61.0273 106.62 60.8184 106.62 60.5879C106.62 60.3848 106.643 60.1641 106.69 59.9258C106.737 59.6836 106.809 59.4277 106.907 59.1582L109.52 51.9688ZM114.216 51.9688H115.089L112.47 59.1582C112.415 59.3105 112.36 59.4668 112.306 59.627C112.251 59.7832 112.202 59.9395 112.159 60.0957C112.12 60.248 112.087 60.3965 112.06 60.541C112.036 60.6816 112.024 60.8125 112.024 60.9336C112.024 61.2031 112.095 61.418 112.235 61.5781C112.38 61.7383 112.603 61.8184 112.903 61.8184C113.165 61.8184 113.417 61.7617 113.659 61.6484C113.905 61.5352 114.147 61.3652 114.386 61.1387C114.628 60.9082 114.87 60.6211 115.112 60.2773C115.355 59.9297 115.606 59.5254 115.868 59.0645L116.173 58.5254L116.331 58.6367L116.026 59.1758C115.741 59.6797 115.468 60.1172 115.206 60.4883C114.948 60.8555 114.689 61.1602 114.427 61.4023C114.169 61.6406 113.905 61.8184 113.636 61.9355C113.366 62.0527 113.079 62.1113 112.774 62.1113C112.536 62.1113 112.325 62.0742 112.142 62C111.962 61.9297 111.812 61.8281 111.69 61.6953C111.565 61.5625 111.472 61.4023 111.409 61.2148C111.347 61.0273 111.315 60.8184 111.315 60.5879C111.315 60.3848 111.339 60.1641 111.386 59.9258C111.433 59.6836 111.505 59.4277 111.603 59.1582L114.216 51.9688ZM118.531 62.1113C117.824 62.1113 117.279 61.9277 116.896 61.5605C116.513 61.1895 116.322 60.6387 116.322 59.9082C116.322 59.709 116.338 59.498 116.369 59.2754C116.396 59.0527 116.441 58.8242 116.504 58.5898C116.644 58.0664 116.841 57.582 117.095 57.1367C117.353 56.6914 117.648 56.3066 117.98 55.9824C118.312 55.6582 118.67 55.4043 119.052 55.2207C119.435 55.0371 119.82 54.9453 120.207 54.9453C120.597 54.9453 120.904 55.0371 121.127 55.2207C121.353 55.4043 121.466 55.6621 121.466 55.9941C121.466 56.1816 121.429 56.3652 121.355 56.5449C121.281 56.7246 121.174 56.8945 121.033 57.0547C120.892 57.2148 120.722 57.3652 120.523 57.5059C120.328 57.6426 120.107 57.7617 119.861 57.8633C119.556 57.9922 119.22 58.0898 118.853 58.1562C118.486 58.2188 118.068 58.25 117.599 58.25C117.486 58.5664 117.396 58.8965 117.33 59.2402C117.267 59.5801 117.236 59.9277 117.236 60.2832C117.236 60.8262 117.349 61.2188 117.576 61.4609C117.806 61.6992 118.168 61.8184 118.66 61.8184C119.07 61.8184 119.461 61.7402 119.832 61.584C120.203 61.4238 120.547 61.2148 120.863 60.957C121.179 60.6992 121.468 60.4062 121.73 60.0781C121.992 59.7461 122.22 59.4082 122.416 59.0645L122.72 58.5254L122.879 58.6367L122.574 59.1758C122.332 59.6016 122.066 59.9941 121.777 60.3535C121.492 60.7129 121.179 61.0234 120.84 61.2852C120.504 61.543 120.142 61.7461 119.756 61.8945C119.373 62.0391 118.965 62.1113 118.531 62.1113ZM120.371 55.1797C120.125 55.1797 119.873 55.252 119.615 55.3965C119.361 55.541 119.115 55.7422 118.877 56C118.638 56.2539 118.416 56.5547 118.209 56.9023C118.002 57.25 117.822 57.6289 117.67 58.0391C118.099 58.0312 118.466 57.9941 118.771 57.9277C119.076 57.8574 119.341 57.7695 119.568 57.6641C119.748 57.582 119.922 57.4766 120.09 57.3477C120.261 57.2148 120.412 57.0645 120.541 56.8965C120.674 56.7285 120.779 56.5469 120.857 56.3516C120.939 56.1562 120.98 55.9531 120.98 55.7422C120.98 55.6367 120.965 55.5488 120.933 55.4785C120.902 55.4082 120.859 55.3516 120.804 55.3086C120.75 55.2617 120.685 55.2285 120.611 55.209C120.537 55.1895 120.457 55.1797 120.371 55.1797ZM127.487 56.4629C127.354 56.4629 127.248 56.4258 127.17 56.3516C127.096 56.2734 127.059 56.168 127.059 56.0352C127.059 55.9102 127.092 55.8086 127.159 55.7305C127.225 55.6523 127.313 55.6133 127.422 55.6133C127.461 55.6133 127.498 55.6211 127.534 55.6367C127.553 55.6445 127.567 55.6504 127.575 55.6543C127.582 55.6543 127.59 55.6543 127.598 55.6543C127.633 55.6543 127.651 55.6289 127.651 55.5781C127.651 55.5273 127.631 55.4785 127.592 55.4316C127.553 55.3809 127.5 55.3379 127.434 55.3027C127.368 55.2637 127.289 55.2344 127.2 55.2148C127.114 55.1914 127.024 55.1797 126.93 55.1797C126.688 55.1797 126.442 55.25 126.192 55.3906C125.946 55.5312 125.705 55.7246 125.471 55.9707C125.241 56.2129 125.022 56.498 124.815 56.8262C124.612 57.1543 124.434 57.5059 124.282 57.8809C124.129 58.252 124.008 58.6367 123.918 59.0352C123.832 59.4336 123.789 59.8242 123.789 60.207C123.789 60.4961 123.815 60.7422 123.866 60.9453C123.92 61.1484 124.002 61.3145 124.112 61.4434C124.225 61.5723 124.369 61.668 124.545 61.7305C124.721 61.7891 124.932 61.8184 125.178 61.8184C125.541 61.8184 125.895 61.7578 126.239 61.6367C126.586 61.5156 126.92 61.3398 127.241 61.1094C127.565 60.875 127.871 60.5879 128.16 60.248C128.453 59.9043 128.725 59.5098 128.975 59.0645L129.28 58.5254L129.438 58.6367L129.133 59.1758C128.575 60.168 127.957 60.9062 127.282 61.3906C126.606 61.8711 125.868 62.1113 125.067 62.1113C124.34 62.1113 123.793 61.9238 123.426 61.5488C123.063 61.1738 122.881 60.6289 122.881 59.9141C122.881 59.7031 122.897 59.4863 122.928 59.2637C122.959 59.041 123.004 58.8164 123.063 58.5898C123.203 58.0664 123.401 57.582 123.655 57.1367C123.912 56.6914 124.205 56.3066 124.534 55.9824C124.866 55.6582 125.223 55.4043 125.606 55.2207C125.993 55.0371 126.385 54.9453 126.784 54.9453C127.201 54.9453 127.52 55.0547 127.739 55.2734C127.828 55.3633 127.897 55.4629 127.944 55.5723C127.991 55.6777 128.014 55.7871 128.014 55.9004C128.014 56.0723 127.965 56.209 127.868 56.3105C127.774 56.4121 127.647 56.4629 127.487 56.4629ZM129.183 55.0566H130.894L131.45 53.5215H132.317L131.761 55.0566H133.519V55.291H131.673L130.267 59.1582C130.212 59.3105 130.157 59.4668 130.103 59.627C130.052 59.7871 130.005 59.9453 129.962 60.1016C129.923 60.2539 129.89 60.4023 129.862 60.5469C129.839 60.6875 129.827 60.8164 129.827 60.9336C129.827 61.2031 129.899 61.418 130.044 61.5781C130.192 61.7383 130.415 61.8184 130.712 61.8184C131.001 61.8184 131.282 61.7637 131.556 61.6543C131.829 61.5449 132.099 61.377 132.364 61.1504C132.63 60.9238 132.894 60.6387 133.155 60.2949C133.417 59.9473 133.681 59.5371 133.946 59.0645L134.251 58.5254L134.409 58.6367L134.104 59.1758C133.796 59.7227 133.497 60.1836 133.208 60.5586C132.919 60.9297 132.632 61.2305 132.347 61.4609C132.065 61.6914 131.778 61.8574 131.485 61.959C131.196 62.0605 130.895 62.1113 130.583 62.1113C130.345 62.1113 130.134 62.0742 129.95 62C129.767 61.9297 129.614 61.8281 129.493 61.6953C129.368 61.5625 129.274 61.4023 129.212 61.2148C129.145 61.0273 129.112 60.8184 129.112 60.5879C129.112 60.3848 129.136 60.1621 129.183 59.9199C129.229 59.6777 129.302 59.4238 129.399 59.1582L130.806 55.291H129.183V55.0566ZM135.877 55.0566H136.744L135.25 59.1582C135.195 59.3105 135.14 59.4668 135.086 59.627C135.031 59.7832 134.982 59.9395 134.939 60.0957C134.9 60.248 134.867 60.3965 134.839 60.541C134.816 60.6816 134.804 60.8125 134.804 60.9336C134.804 61.2031 134.875 61.418 135.015 61.5781C135.16 61.7383 135.382 61.8184 135.683 61.8184C135.945 61.8184 136.197 61.7617 136.439 61.6484C136.685 61.5352 136.927 61.3652 137.166 61.1387C137.408 60.9082 137.65 60.6211 137.892 60.2773C138.134 59.9297 138.386 59.5254 138.648 59.0645L138.953 58.5254L139.111 58.6367L138.806 59.1758C138.521 59.6797 138.248 60.1172 137.986 60.4883C137.728 60.8555 137.468 61.1602 137.207 61.4023C136.949 61.6406 136.685 61.8184 136.416 61.9355C136.146 62.0527 135.859 62.1113 135.554 62.1113C135.316 62.1113 135.105 62.0742 134.921 62C134.742 61.9297 134.591 61.8281 134.47 61.6953C134.345 61.5625 134.252 61.4023 134.189 61.2148C134.127 61.0273 134.095 60.8184 134.095 60.5879C134.095 60.3848 134.121 60.1621 134.171 59.9199C134.218 59.6777 134.289 59.4238 134.382 59.1582L135.877 55.0566ZM136.345 53.5215C136.345 53.3848 136.392 53.2676 136.486 53.1699C136.584 53.0723 136.701 53.0234 136.838 53.0234C136.974 53.0234 137.089 53.0723 137.183 53.1699C137.281 53.2637 137.33 53.3789 137.33 53.5156C137.33 53.582 137.316 53.6465 137.289 53.709C137.265 53.7676 137.23 53.8184 137.183 53.8613C137.14 53.9043 137.088 53.9395 137.025 53.9668C136.966 53.9902 136.902 54.002 136.832 54.002C136.695 54.002 136.58 53.957 136.486 53.8672C136.392 53.7734 136.345 53.6582 136.345 53.5215ZM139.272 58.5957C139.408 58.0723 139.608 57.5879 139.869 57.1426C140.135 56.6973 140.438 56.3125 140.778 55.9883C141.121 55.6602 141.492 55.4043 141.891 55.2207C142.293 55.0371 142.698 54.9453 143.104 54.9453C143.432 54.9453 143.707 55.002 143.93 55.1152C144.156 55.2246 144.338 55.373 144.475 55.5605C144.612 55.748 144.709 55.9648 144.768 56.2109C144.826 56.457 144.856 56.7148 144.856 56.9844C144.856 57.2773 144.826 57.5703 144.768 57.8633C144.713 58.1562 144.641 58.4355 144.551 58.7012C144.496 58.8691 144.434 59.0312 144.364 59.1875C144.293 59.3438 144.219 59.4961 144.141 59.6445C144.196 59.7734 144.276 59.8789 144.381 59.9609C144.487 60.0391 144.633 60.0781 144.821 60.0781C144.93 60.0781 145.047 60.0605 145.172 60.0254C145.297 59.9902 145.422 59.9336 145.547 59.8555C145.676 59.7734 145.801 59.668 145.922 59.5391C146.047 59.4102 146.162 59.252 146.268 59.0645L146.573 58.5254L146.731 58.6367L146.426 59.1758C146.278 59.4375 146.125 59.6445 145.969 59.7969C145.817 59.9453 145.668 60.0586 145.524 60.1367C145.379 60.2148 145.242 60.2656 145.114 60.2891C144.989 60.3086 144.881 60.3184 144.791 60.3184C144.608 60.3184 144.444 60.2949 144.299 60.248C144.155 60.1973 144.026 60.1309 143.912 60.0488C143.717 60.3613 143.5 60.6445 143.262 60.8984C143.028 61.1523 142.78 61.3691 142.518 61.5488C142.256 61.7285 141.985 61.8672 141.703 61.9648C141.426 62.0625 141.149 62.1113 140.871 62.1113C140.594 62.1113 140.344 62.0625 140.121 61.9648C139.903 61.8633 139.717 61.7188 139.565 61.5312C139.412 61.3438 139.295 61.1152 139.213 60.8457C139.131 60.5723 139.09 60.2656 139.09 59.9258C139.09 59.7109 139.106 59.4922 139.137 59.2695C139.168 59.043 139.213 58.8184 139.272 58.5957ZM140.959 61.8184C141.186 61.8184 141.414 61.7676 141.645 61.666C141.879 61.5605 142.108 61.4121 142.33 61.2207C142.557 61.0293 142.774 60.7988 142.981 60.5293C143.192 60.2559 143.385 59.9531 143.561 59.6211C143.514 59.5312 143.479 59.4395 143.455 59.3457C143.436 59.248 143.426 59.1484 143.426 59.0469C143.426 58.9336 143.442 58.8223 143.473 58.7129C143.504 58.5996 143.551 58.4961 143.614 58.4023C143.68 58.3047 143.762 58.2168 143.86 58.1387C143.961 58.0605 144.078 57.998 144.211 57.9512C144.27 57.7324 144.319 57.5059 144.358 57.2715C144.397 57.0332 144.416 56.7988 144.416 56.5684C144.416 56.3809 144.399 56.2031 144.364 56.0352C144.328 55.8633 144.268 55.7148 144.182 55.5898C144.1 55.4648 143.987 55.3652 143.842 55.291C143.701 55.2168 143.526 55.1797 143.315 55.1797C143.01 55.1797 142.707 55.2617 142.406 55.4258C142.11 55.5859 141.826 55.8145 141.557 56.1113C141.291 56.4043 141.049 56.7559 140.83 57.166C140.612 57.5762 140.43 58.0293 140.285 58.5254C140.188 58.8574 140.112 59.1914 140.057 59.5273C140.006 59.8594 139.981 60.1621 139.981 60.4355C139.981 61.3574 140.307 61.8184 140.959 61.8184ZM148.192 55.0566H149.059L148.14 57.5762C148.401 57.1309 148.653 56.7441 148.895 56.416C149.138 56.084 149.378 55.8105 149.616 55.5957C149.858 55.377 150.102 55.2148 150.349 55.1094C150.595 55 150.854 54.9453 151.128 54.9453C151.374 54.9453 151.589 54.9863 151.772 55.0684C151.956 55.1465 152.11 55.2559 152.235 55.3965C152.36 55.5332 152.454 55.6934 152.516 55.877C152.579 56.0605 152.61 56.2539 152.61 56.457C152.61 56.6797 152.577 56.9219 152.511 57.1836C152.448 57.4453 152.368 57.7148 152.27 57.9922C152.173 58.2695 152.067 58.5508 151.954 58.8359C151.841 59.1172 151.735 59.3887 151.638 59.6504C151.54 59.9121 151.458 60.1582 151.391 60.3887C151.329 60.6152 151.298 60.8145 151.298 60.9863C151.298 61.2246 151.37 61.4238 151.515 61.584C151.663 61.7402 151.893 61.8184 152.206 61.8184C152.456 61.8184 152.7 61.7617 152.938 61.6484C153.181 61.5312 153.421 61.3594 153.659 61.1328C153.901 60.9023 154.143 60.6152 154.386 60.2715C154.632 59.9238 154.884 59.5215 155.141 59.0645L155.446 58.5254L155.604 58.6367L155.3 59.1758C155.018 59.668 154.749 60.0996 154.491 60.4707C154.233 60.8379 153.975 61.1426 153.718 61.3848C153.46 61.627 153.196 61.8086 152.927 61.9297C152.661 62.0508 152.378 62.1113 152.077 62.1113C151.831 62.1113 151.614 62.0742 151.427 62C151.243 61.9258 151.089 61.8242 150.964 61.6953C150.839 61.5664 150.745 61.418 150.683 61.25C150.62 61.0781 150.589 60.8965 150.589 60.7051C150.589 60.502 150.62 60.2754 150.683 60.0254C150.749 59.7715 150.831 59.5078 150.929 59.2344C151.026 58.957 151.132 58.6777 151.245 58.3965C151.358 58.1113 151.464 57.8359 151.561 57.5703C151.659 57.3008 151.739 57.0469 151.802 56.8086C151.868 56.5664 151.901 56.3516 151.901 56.1641C151.901 56.0312 151.884 55.9082 151.849 55.7949C151.813 55.6816 151.757 55.584 151.679 55.502C151.604 55.4199 151.509 55.3555 151.391 55.3086C151.278 55.2617 151.141 55.2383 150.981 55.2383C150.735 55.2383 150.495 55.2988 150.261 55.4199C150.026 55.5371 149.79 55.7148 149.552 55.9531C149.317 56.1914 149.077 56.4902 148.831 56.8496C148.589 57.2051 148.333 57.6211 148.063 58.0977L147.759 58.6367L146.528 62H145.661L148.192 55.0566Z" fill="white"/>
<rect x="3" y="38.2499" width="71" height="1.5" fill="#ED1E79"/>
<path d="M85.8299 44.8427C85.4294 43.9556 84.6588 43.3168 83.7709 42.6816C82.6812 41.9017 81.4619 41.4868 80.3128 40.8304C80.3021 40.8137 80.2917 40.7962 80.2803 40.7796C80.2343 40.7107 80.1616 40.6945 80.101 40.7083C80.095 40.705 80.089 40.7017 80.0835 40.6983C79.8965 40.486 79.7179 40.2724 79.5479 40.0654C80.6385 40.1134 81.7338 40.1133 82.8267 40.0815C83.3157 40.4917 83.9011 40.8543 84.5348 41.1788C84.5387 41.1857 84.5364 41.1914 84.5429 41.1984C86.4658 43.3635 90.0092 44.7563 93.0482 44.4594C93.1277 44.4516 93.2002 44.3826 93.1672 44.3122C92.6589 43.2267 91.1391 42.5838 89.9447 42.0495C88.1066 41.2279 86.1878 40.9882 84.2299 40.5814C83.9098 40.4105 83.5891 40.2389 83.2637 40.0677C85.2686 39.9967 87.2569 39.8358 89.1687 39.7145C89.5921 39.9489 90.0401 40.1543 90.5022 40.3399C90.4365 40.3647 90.4137 40.4402 90.4994 40.4969C92.8587 42.0656 96.138 43.3111 98.988 42.785C99.1032 42.7638 99.1707 42.6532 99.0673 42.5657C96.8115 40.651 93.8617 39.7702 90.8971 40.1646C90.4785 40.0051 90.0601 39.8444 89.6399 39.6842C91.4026 39.5762 93.1689 39.4359 94.8984 39.2087C95.6654 39.5587 96.5137 39.7613 97.3817 39.9074C99.5644 40.8222 102.032 41.6562 104.209 40.9182C104.298 40.8882 104.31 40.794 104.242 40.7298C102.736 39.3021 98.7997 38.9178 96.9128 39.5539C96.3845 39.4395 95.8598 39.3105 95.341 39.1513C96.5047 38.9871 97.6496 38.7801 98.7615 38.5108C99.53 38.6211 100.293 38.6324 101.052 38.6176C101.072 38.6465 101.107 38.6709 101.159 38.6796C102.443 38.8972 103.519 38.982 104.773 38.905C105.648 38.8512 106.639 38.8568 107.304 38.4098C107.375 38.3623 107.36 38.2623 107.274 38.2141C105.418 37.1772 102.613 37.5793 101.073 38.4582C101.072 38.4592 101.072 38.4607 101.071 38.4617C100.743 38.4663 100.415 38.4607 100.097 38.4325C99.8755 38.4126 99.6574 38.373 99.4417 38.3379C99.9796 38.1932 100.508 38.0312 101.027 37.8529C102.021 37.9998 103.223 37.622 103.997 37.3009C104.939 36.9101 105.54 36.2252 105.338 35.301C105.325 35.2418 105.241 35.1994 105.173 35.2059C103.272 35.3937 101.935 36.3651 101.046 37.6233C100.969 37.6356 100.892 37.6478 100.818 37.6617C100.757 37.6729 100.727 37.7346 100.754 37.7791C100.153 37.9639 99.5435 38.1298 98.9254 38.2769C98.8249 38.2716 98.7244 38.2702 98.6233 38.278C98.5526 38.2835 98.5232 38.3236 98.5239 38.3679C98.3959 38.3968 98.2662 38.4211 98.1376 38.4481C98.3078 38.321 98.4617 38.1796 98.6007 38.053C98.6656 37.9936 98.7315 37.9347 98.7967 37.8754C98.8312 37.9118 98.8952 37.9378 98.951 37.9259C100.16 37.6591 100.853 36.9943 101.483 36.1947C101.74 35.8698 102.724 34.8061 102.204 34.3369C101.582 33.7752 100.444 34.9957 100.096 35.199C99.0453 35.813 97.5405 36.6777 98.2154 37.9722C98.2288 37.9977 98.2534 38.0065 98.2794 38.0087C98.19 38.0829 98.101 38.1572 98.0067 38.2282C97.8257 38.3646 97.6114 38.4641 97.429 38.5938C96.1135 38.8446 94.7657 39.0254 93.3985 39.16C93.686 38.9607 93.8988 38.6637 94.0733 38.4265C94.13 38.3494 94.175 38.2672 94.225 38.1869C94.2658 38.2324 94.3528 38.2569 94.417 38.2244C95.7972 37.5263 97.1308 35.8842 96.7056 34.4334C96.6842 34.3586 96.5943 34.3179 96.5089 34.3205C94.6584 34.3717 92.4107 36.9849 93.8065 38.4343C93.7014 38.5592 93.5848 38.6771 93.4489 38.7849C93.2186 38.9657 92.9154 39.0636 92.6722 39.228C91.8209 39.3015 90.9637 39.3593 90.1011 39.4038C89.7487 39.4219 89.3972 39.4395 89.0453 39.4572C89.0388 39.4546 89.0329 39.4522 89.0259 39.4501C88.9802 39.4325 88.943 39.4425 88.92 39.4638C88.6101 39.4792 88.3003 39.4957 87.9904 39.5108C88.1647 39.3862 88.3147 39.2254 88.4488 39.0476C88.4651 39.0514 88.4796 39.0575 88.4998 39.0548C89.6186 38.9144 90.3927 37.7339 90.8335 37.0189C91.3459 36.187 91.678 35.1481 91.2974 34.1545C91.2682 34.079 91.1765 34.0412 91.0914 34.0641C89.9608 34.3711 89.2429 35.3165 88.5967 36.0508C87.851 36.8981 87.3875 37.8619 88.023 38.9712C87.7552 39.1883 87.4474 39.3548 87.14 39.5516C85.3773 39.6341 83.6161 39.6972 81.8458 39.71C82.0769 39.6017 82.2882 39.4664 82.4844 39.3147C83.5542 39.0613 84.5697 38.3766 85.2826 37.7966C86.1458 37.0939 86.6408 36.1511 86.2516 35.0795C86.2274 35.0137 86.1402 34.9521 86.0536 34.9663C83.7467 35.3418 81.2345 37.2481 81.8989 39.3923C81.6284 39.5334 81.3348 39.6371 81.0207 39.7115C79.2934 39.7075 77.5559 39.6515 75.7974 39.5058C75.6654 39.4945 75.6644 39.6417 75.7936 39.6653C76.9271 39.8706 78.0798 39.9906 79.24 40.0517C79.485 40.3727 79.7717 40.7115 80.0884 41.039C80.5402 41.9951 80.9068 42.9577 81.9885 43.6468C83.0996 44.3549 84.3464 44.71 85.6567 44.9973C85.7638 45.021 85.8669 44.9253 85.8299 44.8427ZM88.0023 41.5634C89.2505 41.8743 90.4714 42.5208 91.5527 43.1424C92.4167 43.6387 93.1444 44.2856 91.6323 44.2419C90.7164 44.2153 89.7944 43.9574 88.9215 43.6625C87.4825 43.1766 86.3259 42.3585 85.2021 41.499C86.4438 42.0612 87.7982 42.5012 88.9572 42.88C89.0625 42.9146 89.1089 42.7898 89.0037 42.7561C87.481 42.2671 86.1428 41.5969 84.8085 40.89C85.8668 41.1445 86.9428 41.2995 88.0023 41.5634ZM98.158 42.1853C99.395 43.0835 95.3603 42.3331 94.8537 42.2171C93.4089 41.8859 92.2671 41.15 90.9981 40.5296C92.1913 40.9675 93.4539 41.3 94.6277 41.6627C94.7457 41.6993 94.7971 41.5628 94.6801 41.5248C93.5461 41.1547 92.4443 40.7494 91.345 40.3343C93.8503 40.3285 96.0164 40.6306 98.158 42.1853ZM102.492 40.0439C103.003 40.1925 103.468 40.4156 103.867 40.7268C103.947 40.789 101.879 40.9427 101.612 40.9174C100.558 40.8166 99.5472 40.4441 98.5475 40.0784C99.2911 40.1753 100.028 40.2607 100.721 40.3907C100.82 40.4091 100.82 40.2895 100.724 40.2698C99.6081 40.0435 98.4813 39.8752 97.3674 39.6516C99.0285 39.4443 100.798 39.5523 102.492 40.0439ZM106.278 38.0003C107.211 38.2298 106.337 38.4732 105.915 38.5266C105.512 38.5778 105.092 38.5907 104.681 38.6133C103.936 38.6547 103.247 38.6308 102.544 38.5811C102.923 38.5668 103.315 38.5297 103.566 38.4154C103.567 38.415 103.567 38.4141 103.567 38.4137C103.576 38.4098 103.583 38.4026 103.584 38.3944C103.585 38.3899 103.582 38.3859 103.58 38.3812C103.58 38.3765 103.579 38.372 103.576 38.3683C103.569 38.3607 103.559 38.3553 103.548 38.3533C103.547 38.3532 103.547 38.3525 103.546 38.352C103.123 38.269 102.508 38.4066 102.105 38.4256C101.947 38.4329 101.786 38.4407 101.623 38.4475C103.027 37.9547 104.645 37.5989 106.278 38.0003ZM102.95 36.1488C103.419 35.8262 103.988 35.6313 104.601 35.5037C105.363 35.3449 105.104 36.0101 104.924 36.3065C104.373 37.2121 103.145 37.3719 101.962 37.5077C102.073 37.4633 102.187 37.4207 102.297 37.3742C102.299 37.3744 102.299 37.376 102.301 37.376C102.357 37.3694 102.413 37.3628 102.469 37.3562C102.483 37.3545 102.477 37.3379 102.464 37.3386C102.43 37.3415 102.396 37.3441 102.362 37.3467C102.501 37.2887 102.64 37.2322 102.775 37.1707C102.834 37.1448 102.782 37.0631 102.72 37.088C102.279 37.2654 101.83 37.425 101.377 37.5772C101.365 37.5788 101.353 37.5806 101.341 37.5819C101.88 37.1051 102.334 36.5724 102.95 36.1488ZM100.281 35.3667C100.587 35.1925 100.851 34.9775 101.13 34.778C101.505 34.5094 102.207 34.288 101.962 34.9261C101.752 35.475 101.305 35.9698 100.908 36.4282C100.667 36.7065 100.412 36.9724 100.092 37.1949C99.7841 37.4083 99.3825 37.5183 99.0222 37.6724C99.3729 37.3513 99.7224 37.0294 100.081 36.7131C100.114 36.6835 100.07 36.6181 100.018 36.6414C99.502 36.875 99.1343 37.2389 98.7558 37.5927C98.6282 37.711 98.4989 37.8269 98.3662 37.9402C98.0038 36.677 99.2141 35.975 100.281 35.3667ZM95.5572 34.879C95.6988 34.7941 96.3907 34.458 96.4476 34.6515C96.6034 35.1898 96.3521 35.7313 96.0858 36.1725C95.6761 36.8521 94.953 37.3073 94.4041 37.8855C94.6261 37.4604 94.7948 37.0121 95.0039 36.5827C95.0335 36.5218 94.9084 36.4831 94.8775 36.5408C94.5988 37.0608 94.3646 37.5999 94.0504 38.1046C94.0069 38.1742 93.9538 38.2367 93.9049 38.3021C93.1208 37.0415 94.4743 35.5281 95.5572 34.879ZM89.1137 35.8699C89.4253 35.5215 89.7587 35.1897 90.1236 34.8777C90.2173 34.798 91.037 34.2228 91.0768 34.3727C91.3278 35.3082 90.8573 36.282 90.3799 37.0437C89.9698 37.6977 89.3434 38.1079 88.7432 38.5858C89.0076 38.1005 89.1891 37.5777 89.3401 37.24C89.3738 37.1653 89.2193 37.1156 89.1848 37.189C88.9571 37.6706 88.7223 38.1438 88.4001 38.5842C88.3309 38.6785 88.2538 38.7619 88.1733 38.8393C87.6269 37.6418 88.3414 36.7321 89.1137 35.8699ZM83.3639 36.4962C83.7925 36.1131 84.3308 35.8096 84.8985 35.5634C85.1375 35.4602 85.398 35.3875 85.6572 35.3167C86.2101 35.1657 86.0777 35.5766 86.084 35.8486C86.1151 37.2958 84.5647 38.016 83.1601 38.6587C83.3961 38.3799 83.603 38.0837 83.7873 37.7938C83.8254 37.7333 83.7129 37.6655 83.6648 37.7238C83.3079 38.158 82.9419 38.5831 82.506 38.9639C82.3542 39.0372 82.2092 39.1106 82.0716 39.1858C82.0922 38.1278 82.4995 37.2677 83.3639 36.4962ZM84.0025 44.2877C83.2399 44.0517 82.5481 43.6967 81.9325 43.2456C81.3156 42.7937 81.0387 42.2315 80.7617 41.6618C81.2569 42.0707 81.8076 42.4198 82.4102 42.6198C82.5194 42.656 82.5648 42.5306 82.4582 42.4918C81.6832 42.2096 81.0507 41.7069 80.5026 41.1505C80.5 41.1454 80.4972 41.1407 80.4947 41.1356C81.1508 41.4947 81.8605 41.7747 82.5227 42.1329C83.5187 42.6712 84.6131 43.5669 85.2324 44.386C85.5016 44.7426 84.0524 44.303 84.0025 44.2877Z" fill="#ED1E79"/>
<rect x="109.021" y="38.2499" width="69" height="1.5" fill="#ED1E79"/>
</svg>
